<?xml version="1.0" encoding="utf-8" standalone="no"?>
<!DOCTYPE svg PUBLIC "-//W3C//DTD SVG 1.1//EN"
  "http://www.w3.org/Graphics/SVG/1.1/DTD/svg11.dtd">
<!-- Created with matplotlib (http://matplotlib.org/) -->
<svg height="432pt" version="1.1" viewBox="0 0 576 432" width="576pt" xmlns="http://www.w3.org/2000/svg" xmlns:xlink="http://www.w3.org/1999/xlink">
 <defs>
  <style type="text/css">
*{stroke-linecap:butt;stroke-linejoin:round;stroke-miterlimit:100000;}
  </style>
 </defs>
 <g id="figure_1">
  <g id="patch_1">
   <path d="M 0 432 
L 576 432 
L 576 0 
L 0 0 
z
" style="fill:#ffffff;"/>
  </g>
  <g id="axes_1">
   <g id="patch_2">
    <path d="M 72 388.8 
L 518.4 388.8 
L 518.4 43.2 
L 72 43.2 
z
" style="fill:#ffffff;"/>
   </g>
   <g id="line2d_1">
    <defs>
     <path d="M 0 3 
C 0.795609 3 1.55874 2.683901 2.12132 2.12132 
C 2.683901 1.55874 3 0.795609 3 0 
C 3 -0.795609 2.683901 -1.55874 2.12132 -2.12132 
C 1.55874 -2.683901 0.795609 -3 0 -3 
C -0.795609 -3 -1.55874 -2.683901 -2.12132 -2.12132 
C -2.683901 -1.55874 -3 -0.795609 -3 0 
C -3 0.795609 -2.683901 1.55874 -2.12132 2.12132 
C -1.55874 2.683901 -0.795609 3 0 3 
z
" id="ma4d69dee0c" style="stroke:#000000;stroke-width:0.5;"/>
    </defs>
    <g clip-path="url(#pd7d4d207bf)">
     <use style="fill:#0000ff;stroke:#000000;stroke-width:0.5;" x="94.2682857565" xlink:href="#ma4d69dee0c" y="290.057142857"/>
     <use style="fill:#0000ff;stroke:#000000;stroke-width:0.5;" x="117.296262312" xlink:href="#ma4d69dee0c" y="290.057142857"/>
     <use style="fill:#0000ff;stroke:#000000;stroke-width:0.5;" x="130.421413389" xlink:href="#ma4d69dee0c" y="290.057142857"/>
     <use style="fill:#0000ff;stroke:#000000;stroke-width:0.5;" x="139.819861223" xlink:href="#ma4d69dee0c" y="290.057142857"/>
     <use style="fill:#0000ff;stroke:#000000;stroke-width:0.5;" x="147.244340052" xlink:href="#ma4d69dee0c" y="290.057142857"/>
     <use style="fill:#0000ff;stroke:#000000;stroke-width:0.5;" x="153.434452556" xlink:href="#ma4d69dee0c" y="290.057142857"/>
     <use style="fill:#0000ff;stroke:#000000;stroke-width:0.5;" x="158.775088303" xlink:href="#ma4d69dee0c" y="290.057142857"/>
     <use style="fill:#0000ff;stroke:#000000;stroke-width:0.5;" x="163.493197342" xlink:href="#ma4d69dee0c" y="290.057142857"/>
     <use style="fill:#0000ff;stroke:#000000;stroke-width:0.5;" x="167.734311827" xlink:href="#ma4d69dee0c" y="290.057142857"/>
     <use style="fill:#0000ff;stroke:#000000;stroke-width:0.5;" x="171.597577381" xlink:href="#ma4d69dee0c" y="290.057142857"/>
     <use style="fill:#0000ff;stroke:#000000;stroke-width:0.5;" x="175.15370682" xlink:href="#ma4d69dee0c" y="290.057142857"/>
     <use style="fill:#0000ff;stroke:#000000;stroke-width:0.5;" x="178.454981693" xlink:href="#ma4d69dee0c" y="290.057142857"/>
     <use style="fill:#0000ff;stroke:#000000;stroke-width:0.5;" x="181.541194395" xlink:href="#ma4d69dee0c" y="290.057142857"/>
     <use style="fill:#0000ff;stroke:#000000;stroke-width:0.5;" x="184.443364488" xlink:href="#ma4d69dee0c" y="290.057142857"/>
     <use style="fill:#0000ff;stroke:#000000;stroke-width:0.5;" x="187.186162543" xlink:href="#ma4d69dee0c" y="290.057142857"/>
     <use style="fill:#0000ff;stroke:#000000;stroke-width:0.5;" x="189.789547291" xlink:href="#ma4d69dee0c" y="290.057142857"/>
     <use style="fill:#0000ff;stroke:#000000;stroke-width:0.5;" x="192.269904632" xlink:href="#ma4d69dee0c" y="290.057142857"/>
     <use style="fill:#0000ff;stroke:#000000;stroke-width:0.5;" x="194.640860492" xlink:href="#ma4d69dee0c" y="290.057142857"/>
     <use style="fill:#0000ff;stroke:#000000;stroke-width:0.5;" x="196.913873839" xlink:href="#ma4d69dee0c" y="290.057142857"/>
     <use style="fill:#0000ff;stroke:#000000;stroke-width:0.5;" x="199.09867778" xlink:href="#ma4d69dee0c" y="290.057142857"/>
     <use style="fill:#0000ff;stroke:#000000;stroke-width:0.5;" x="201.203613291" xlink:href="#ma4d69dee0c" y="290.057142857"/>
     <use style="fill:#0000ff;stroke:#000000;stroke-width:0.5;" x="203.235885596" xlink:href="#ma4d69dee0c" y="290.057142857"/>
     <use style="fill:#0000ff;stroke:#000000;stroke-width:0.5;" x="205.201763828" xlink:href="#ma4d69dee0c" y="290.057142857"/>
     <use style="fill:#0000ff;stroke:#000000;stroke-width:0.5;" x="207.106738422" xlink:href="#ma4d69dee0c" y="290.057142857"/>
     <use style="fill:#0000ff;stroke:#000000;stroke-width:0.5;" x="208.955646609" xlink:href="#ma4d69dee0c" y="290.057142857"/>
     <use style="fill:#0000ff;stroke:#000000;stroke-width:0.5;" x="210.752773459" xlink:href="#ma4d69dee0c" y="290.057142857"/>
     <use style="fill:#0000ff;stroke:#000000;stroke-width:0.5;" x="212.501934026" xlink:href="#ma4d69dee0c" y="290.057142857"/>
     <use style="fill:#0000ff;stroke:#000000;stroke-width:0.5;" x="214.206540674" xlink:href="#ma4d69dee0c" y="290.057142857"/>
     <use style="fill:#0000ff;stroke:#000000;stroke-width:0.5;" x="215.869658709" xlink:href="#ma4d69dee0c" y="290.057142857"/>
     <use style="fill:#0000ff;stroke:#000000;stroke-width:0.5;" x="217.494052677" xlink:href="#ma4d69dee0c" y="290.057142857"/>
     <use style="fill:#0000ff;stroke:#000000;stroke-width:0.5;" x="219.082225145" xlink:href="#ma4d69dee0c" y="290.057142857"/>
     <use style="fill:#0000ff;stroke:#000000;stroke-width:0.5;" x="220.636449404" xlink:href="#ma4d69dee0c" y="290.057142857"/>
     <use style="fill:#0000ff;stroke:#000000;stroke-width:0.5;" x="222.158797192" xlink:href="#ma4d69dee0c" y="290.057142857"/>
     <use style="fill:#0000ff;stroke:#000000;stroke-width:0.5;" x="223.651162338" xlink:href="#ma4d69dee0c" y="290.057142857"/>
     <use style="fill:#0000ff;stroke:#000000;stroke-width:0.5;" x="225.115281016" xlink:href="#ma4d69dee0c" y="290.057142857"/>
     <use style="fill:#0000ff;stroke:#000000;stroke-width:0.5;" x="226.552749186" xlink:href="#ma4d69dee0c" y="290.057142857"/>
     <use style="fill:#0000ff;stroke:#000000;stroke-width:0.5;" x="227.965037685" xlink:href="#ma4d69dee0c" y="290.057142857"/>
     <use style="fill:#0000ff;stroke:#000000;stroke-width:0.5;" x="229.353505325" xlink:href="#ma4d69dee0c" y="290.057142857"/>
     <use style="fill:#0000ff;stroke:#000000;stroke-width:0.5;" x="230.719410322" xlink:href="#ma4d69dee0c" y="290.057142857"/>
     <use style="fill:#0000ff;stroke:#000000;stroke-width:0.5;" x="232.0639203" xlink:href="#ma4d69dee0c" y="290.057142857"/>
     <use style="fill:#0000ff;stroke:#000000;stroke-width:0.5;" x="233.388121073" xlink:href="#ma4d69dee0c" y="290.057142857"/>
     <use style="fill:#0000ff;stroke:#000000;stroke-width:0.5;" x="234.693024396" xlink:href="#ma4d69dee0c" y="290.057142857"/>
     <use style="fill:#0000ff;stroke:#000000;stroke-width:0.5;" x="235.979574809" xlink:href="#ma4d69dee0c" y="290.057142857"/>
     <use style="fill:#0000ff;stroke:#000000;stroke-width:0.5;" x="237.248655719" xlink:href="#ma4d69dee0c" y="290.057142857"/>
     <use style="fill:#0000ff;stroke:#000000;stroke-width:0.5;" x="238.501094801" xlink:href="#ma4d69dee0c" y="290.057142857"/>
     <use style="fill:#0000ff;stroke:#000000;stroke-width:0.5;" x="239.73766882" xlink:href="#ma4d69dee0c" y="290.057142857"/>
     <use style="fill:#0000ff;stroke:#000000;stroke-width:0.5;" x="240.959107947" xlink:href="#ma4d69dee0c" y="290.057142857"/>
     <use style="fill:#0000ff;stroke:#000000;stroke-width:0.5;" x="242.166099628" xlink:href="#ma4d69dee0c" y="290.057142857"/>
     <use style="fill:#0000ff;stroke:#000000;stroke-width:0.5;" x="243.359292058" xlink:href="#ma4d69dee0c" y="290.057142857"/>
     <use style="fill:#0000ff;stroke:#000000;stroke-width:0.5;" x="244.539297319" xlink:href="#ma4d69dee0c" y="290.057142857"/>
     <use style="fill:#0000ff;stroke:#000000;stroke-width:0.5;" x="245.706694208" xlink:href="#ma4d69dee0c" y="290.057142857"/>
     <use style="fill:#0000ff;stroke:#000000;stroke-width:0.5;" x="246.862030801" xlink:href="#ma4d69dee0c" y="290.057142857"/>
     <use style="fill:#0000ff;stroke:#000000;stroke-width:0.5;" x="248.005826772" xlink:href="#ma4d69dee0c" y="290.057142857"/>
     <use style="fill:#0000ff;stroke:#000000;stroke-width:0.5;" x="249.13857551" xlink:href="#ma4d69dee0c" y="290.057142857"/>
     <use style="fill:#0000ff;stroke:#000000;stroke-width:0.5;" x="250.260746042" xlink:href="#ma4d69dee0c" y="290.057142857"/>
     <use style="fill:#0000ff;stroke:#000000;stroke-width:0.5;" x="251.372784783" xlink:href="#ma4d69dee0c" y="290.057142857"/>
     <use style="fill:#0000ff;stroke:#000000;stroke-width:0.5;" x="252.475117143" xlink:href="#ma4d69dee0c" y="290.057142857"/>
     <use style="fill:#0000ff;stroke:#000000;stroke-width:0.5;" x="253.568148997" xlink:href="#ma4d69dee0c" y="290.057142857"/>
     <use style="fill:#0000ff;stroke:#000000;stroke-width:0.5;" x="254.652268027" xlink:href="#ma4d69dee0c" y="290.057142857"/>
     <use style="fill:#0000ff;stroke:#000000;stroke-width:0.5;" x="255.727844965" xlink:href="#ma4d69dee0c" y="290.057142857"/>
     <use style="fill:#0000ff;stroke:#000000;stroke-width:0.5;" x="256.795234726" xlink:href="#ma4d69dee0c" y="290.057142857"/>
     <use style="fill:#0000ff;stroke:#000000;stroke-width:0.5;" x="257.854777465" xlink:href="#ma4d69dee0c" y="290.057142857"/>
     <use style="fill:#0000ff;stroke:#000000;stroke-width:0.5;" x="258.90679954" xlink:href="#ma4d69dee0c" y="290.057142857"/>
     <use style="fill:#0000ff;stroke:#000000;stroke-width:0.5;" x="259.951614409" xlink:href="#ma4d69dee0c" y="290.057142857"/>
     <use style="fill:#0000ff;stroke:#000000;stroke-width:0.5;" x="260.989523465" xlink:href="#ma4d69dee0c" y="290.057142857"/>
     <use style="fill:#0000ff;stroke:#000000;stroke-width:0.5;" x="262.020816799" xlink:href="#ma4d69dee0c" y="290.057142857"/>
     <use style="fill:#0000ff;stroke:#000000;stroke-width:0.5;" x="263.045773919" xlink:href="#ma4d69dee0c" y="290.057142857"/>
     <use style="fill:#0000ff;stroke:#000000;stroke-width:0.5;" x="264.064664414" xlink:href="#ma4d69dee0c" y="290.057142857"/>
     <use style="fill:#0000ff;stroke:#000000;stroke-width:0.5;" x="265.077748573" xlink:href="#ma4d69dee0c" y="290.057142857"/>
     <use style="fill:#0000ff;stroke:#000000;stroke-width:0.5;" x="266.085277964" xlink:href="#ma4d69dee0c" y="290.057142857"/>
     <use style="fill:#0000ff;stroke:#000000;stroke-width:0.5;" x="267.087495974" xlink:href="#ma4d69dee0c" y="290.057142857"/>
     <use style="fill:#0000ff;stroke:#000000;stroke-width:0.5;" x="268.084638311" xlink:href="#ma4d69dee0c" y="290.057142857"/>
     <use style="fill:#0000ff;stroke:#000000;stroke-width:0.5;" x="269.076933483" xlink:href="#ma4d69dee0c" y="290.057142857"/>
     <use style="fill:#0000ff;stroke:#000000;stroke-width:0.5;" x="270.064603238" xlink:href="#ma4d69dee0c" y="290.057142857"/>
     <use style="fill:#0000ff;stroke:#000000;stroke-width:0.5;" x="271.047862982" xlink:href="#ma4d69dee0c" y="290.057142857"/>
     <use style="fill:#0000ff;stroke:#000000;stroke-width:0.5;" x="272.026922173" xlink:href="#ma4d69dee0c" y="290.057142857"/>
     <use style="fill:#0000ff;stroke:#000000;stroke-width:0.5;" x="273.001984691" xlink:href="#ma4d69dee0c" y="290.057142857"/>
     <use style="fill:#0000ff;stroke:#000000;stroke-width:0.5;" x="273.973249188" xlink:href="#ma4d69dee0c" y="290.057142857"/>
     <use style="fill:#0000ff;stroke:#000000;stroke-width:0.5;" x="274.940909417" xlink:href="#ma4d69dee0c" y="290.057142857"/>
     <use style="fill:#0000ff;stroke:#000000;stroke-width:0.5;" x="275.905154549" xlink:href="#ma4d69dee0c" y="285.12"/>
     <use style="fill:#0000ff;stroke:#000000;stroke-width:0.5;" x="276.866169465" xlink:href="#ma4d69dee0c" y="285.12"/>
     <use style="fill:#0000ff;stroke:#000000;stroke-width:0.5;" x="277.82413504" xlink:href="#ma4d69dee0c" y="285.12"/>
     <use style="fill:#0000ff;stroke:#000000;stroke-width:0.5;" x="278.779228417" xlink:href="#ma4d69dee0c" y="284.626285714"/>
     <use style="fill:#0000ff;stroke:#000000;stroke-width:0.5;" x="279.731623255" xlink:href="#ma4d69dee0c" y="284.132571429"/>
     <use style="fill:#0000ff;stroke:#000000;stroke-width:0.5;" x="280.681489979" xlink:href="#ma4d69dee0c" y="284.132571429"/>
     <use style="fill:#0000ff;stroke:#000000;stroke-width:0.5;" x="281.628996014" xlink:href="#ma4d69dee0c" y="284.132571429"/>
     <use style="fill:#0000ff;stroke:#000000;stroke-width:0.5;" x="282.57430601" xlink:href="#ma4d69dee0c" y="284.132571429"/>
     <use style="fill:#0000ff;stroke:#000000;stroke-width:0.5;" x="283.517582057" xlink:href="#ma4d69dee0c" y="284.132571429"/>
     <use style="fill:#0000ff;stroke:#000000;stroke-width:0.5;" x="284.458983894" xlink:href="#ma4d69dee0c" y="284.132571429"/>
     <use style="fill:#0000ff;stroke:#000000;stroke-width:0.5;" x="285.39866911" xlink:href="#ma4d69dee0c" y="284.132571429"/>
     <use style="fill:#0000ff;stroke:#000000;stroke-width:0.5;" x="286.336793338" xlink:href="#ma4d69dee0c" y="284.132571429"/>
     <use style="fill:#0000ff;stroke:#000000;stroke-width:0.5;" x="287.273510447" xlink:href="#ma4d69dee0c" y="284.132571429"/>
     <use style="fill:#0000ff;stroke:#000000;stroke-width:0.5;" x="288.20897272" xlink:href="#ma4d69dee0c" y="283.145142857"/>
     <use style="fill:#0000ff;stroke:#000000;stroke-width:0.5;" x="289.143331036" xlink:href="#ma4d69dee0c" y="283.145142857"/>
     <use style="fill:#0000ff;stroke:#000000;stroke-width:0.5;" x="290.076735044" xlink:href="#ma4d69dee0c" y="283.145142857"/>
     <use style="fill:#0000ff;stroke:#000000;stroke-width:0.5;" x="291.009333336" xlink:href="#ma4d69dee0c" y="283.145142857"/>
     <use style="fill:#0000ff;stroke:#000000;stroke-width:0.5;" x="291.941273612" xlink:href="#ma4d69dee0c" y="281.664"/>
     <use style="fill:#0000ff;stroke:#000000;stroke-width:0.5;" x="292.872702844" xlink:href="#ma4d69dee0c" y="281.664"/>
     <use style="fill:#0000ff;stroke:#000000;stroke-width:0.5;" x="293.803767447" xlink:href="#ma4d69dee0c" y="280.676571429"/>
     <use style="fill:#0000ff;stroke:#000000;stroke-width:0.5;" x="294.734613431" xlink:href="#ma4d69dee0c" y="280.676571429"/>
     <use style="fill:#0000ff;stroke:#000000;stroke-width:0.5;" x="295.665386569" xlink:href="#ma4d69dee0c" y="280.676571429"/>
     <use style="fill:#0000ff;stroke:#000000;stroke-width:0.5;" x="296.596232553" xlink:href="#ma4d69dee0c" y="279.689142857"/>
     <use style="fill:#0000ff;stroke:#000000;stroke-width:0.5;" x="297.527297156" xlink:href="#ma4d69dee0c" y="279.195428571"/>
     <use style="fill:#0000ff;stroke:#000000;stroke-width:0.5;" x="298.458726388" xlink:href="#ma4d69dee0c" y="278.208"/>
     <use style="fill:#0000ff;stroke:#000000;stroke-width:0.5;" x="299.390666664" xlink:href="#ma4d69dee0c" y="278.208"/>
     <use style="fill:#0000ff;stroke:#000000;stroke-width:0.5;" x="300.323264956" xlink:href="#ma4d69dee0c" y="277.714285714"/>
     <use style="fill:#0000ff;stroke:#000000;stroke-width:0.5;" x="301.256668964" xlink:href="#ma4d69dee0c" y="277.714285714"/>
     <use style="fill:#0000ff;stroke:#000000;stroke-width:0.5;" x="302.19102728" xlink:href="#ma4d69dee0c" y="277.220571429"/>
     <use style="fill:#0000ff;stroke:#000000;stroke-width:0.5;" x="303.126489553" xlink:href="#ma4d69dee0c" y="276.726857143"/>
     <use style="fill:#0000ff;stroke:#000000;stroke-width:0.5;" x="304.063206662" xlink:href="#ma4d69dee0c" y="276.726857143"/>
     <use style="fill:#0000ff;stroke:#000000;stroke-width:0.5;" x="305.00133089" xlink:href="#ma4d69dee0c" y="276.726857143"/>
     <use style="fill:#0000ff;stroke:#000000;stroke-width:0.5;" x="305.941016106" xlink:href="#ma4d69dee0c" y="275.739428571"/>
     <use style="fill:#0000ff;stroke:#000000;stroke-width:0.5;" x="306.882417943" xlink:href="#ma4d69dee0c" y="275.739428571"/>
     <use style="fill:#0000ff;stroke:#000000;stroke-width:0.5;" x="307.82569399" xlink:href="#ma4d69dee0c" y="274.752"/>
     <use style="fill:#0000ff;stroke:#000000;stroke-width:0.5;" x="308.771003986" xlink:href="#ma4d69dee0c" y="274.752"/>
     <use style="fill:#0000ff;stroke:#000000;stroke-width:0.5;" x="309.718510021" xlink:href="#ma4d69dee0c" y="274.258285714"/>
     <use style="fill:#0000ff;stroke:#000000;stroke-width:0.5;" x="310.668376745" xlink:href="#ma4d69dee0c" y="273.270857143"/>
     <use style="fill:#0000ff;stroke:#000000;stroke-width:0.5;" x="311.620771583" xlink:href="#ma4d69dee0c" y="272.777142857"/>
     <use style="fill:#0000ff;stroke:#000000;stroke-width:0.5;" x="312.57586496" xlink:href="#ma4d69dee0c" y="272.283428571"/>
     <use style="fill:#0000ff;stroke:#000000;stroke-width:0.5;" x="313.533830535" xlink:href="#ma4d69dee0c" y="270.802285714"/>
     <use style="fill:#0000ff;stroke:#000000;stroke-width:0.5;" x="314.494845451" xlink:href="#ma4d69dee0c" y="270.802285714"/>
     <use style="fill:#0000ff;stroke:#000000;stroke-width:0.5;" x="315.459090583" xlink:href="#ma4d69dee0c" y="270.308571429"/>
     <use style="fill:#0000ff;stroke:#000000;stroke-width:0.5;" x="316.426750812" xlink:href="#ma4d69dee0c" y="270.308571429"/>
     <use style="fill:#0000ff;stroke:#000000;stroke-width:0.5;" x="317.398015309" xlink:href="#ma4d69dee0c" y="269.814857143"/>
     <use style="fill:#0000ff;stroke:#000000;stroke-width:0.5;" x="318.373077827" xlink:href="#ma4d69dee0c" y="269.814857143"/>
     <use style="fill:#0000ff;stroke:#000000;stroke-width:0.5;" x="319.352137018" xlink:href="#ma4d69dee0c" y="266.358857143"/>
     <use style="fill:#0000ff;stroke:#000000;stroke-width:0.5;" x="320.335396762" xlink:href="#ma4d69dee0c" y="266.358857143"/>
     <use style="fill:#0000ff;stroke:#000000;stroke-width:0.5;" x="321.323066517" xlink:href="#ma4d69dee0c" y="265.865142857"/>
     <use style="fill:#0000ff;stroke:#000000;stroke-width:0.5;" x="322.315361689" xlink:href="#ma4d69dee0c" y="265.371428571"/>
     <use style="fill:#0000ff;stroke:#000000;stroke-width:0.5;" x="323.312504026" xlink:href="#ma4d69dee0c" y="264.384"/>
     <use style="fill:#0000ff;stroke:#000000;stroke-width:0.5;" x="324.314722036" xlink:href="#ma4d69dee0c" y="263.890285714"/>
     <use style="fill:#0000ff;stroke:#000000;stroke-width:0.5;" x="325.322251427" xlink:href="#ma4d69dee0c" y="263.396571429"/>
     <use style="fill:#0000ff;stroke:#000000;stroke-width:0.5;" x="326.335335586" xlink:href="#ma4d69dee0c" y="262.902857143"/>
     <use style="fill:#0000ff;stroke:#000000;stroke-width:0.5;" x="327.354226081" xlink:href="#ma4d69dee0c" y="262.902857143"/>
     <use style="fill:#0000ff;stroke:#000000;stroke-width:0.5;" x="328.379183201" xlink:href="#ma4d69dee0c" y="262.902857143"/>
     <use style="fill:#0000ff;stroke:#000000;stroke-width:0.5;" x="329.410476535" xlink:href="#ma4d69dee0c" y="262.409142857"/>
     <use style="fill:#0000ff;stroke:#000000;stroke-width:0.5;" x="330.448385591" xlink:href="#ma4d69dee0c" y="261.915428571"/>
     <use style="fill:#0000ff;stroke:#000000;stroke-width:0.5;" x="331.49320046" xlink:href="#ma4d69dee0c" y="261.421714286"/>
     <use style="fill:#0000ff;stroke:#000000;stroke-width:0.5;" x="332.545222535" xlink:href="#ma4d69dee0c" y="260.928"/>
     <use style="fill:#0000ff;stroke:#000000;stroke-width:0.5;" x="333.604765274" xlink:href="#ma4d69dee0c" y="259.940571429"/>
     <use style="fill:#0000ff;stroke:#000000;stroke-width:0.5;" x="334.672155035" xlink:href="#ma4d69dee0c" y="259.940571429"/>
     <use style="fill:#0000ff;stroke:#000000;stroke-width:0.5;" x="335.747731973" xlink:href="#ma4d69dee0c" y="258.459428571"/>
     <use style="fill:#0000ff;stroke:#000000;stroke-width:0.5;" x="336.831851003" xlink:href="#ma4d69dee0c" y="258.459428571"/>
     <use style="fill:#0000ff;stroke:#000000;stroke-width:0.5;" x="337.924882857" xlink:href="#ma4d69dee0c" y="257.965714286"/>
     <use style="fill:#0000ff;stroke:#000000;stroke-width:0.5;" x="339.027215217" xlink:href="#ma4d69dee0c" y="257.472"/>
     <use style="fill:#0000ff;stroke:#000000;stroke-width:0.5;" x="340.139253958" xlink:href="#ma4d69dee0c" y="257.472"/>
     <use style="fill:#0000ff;stroke:#000000;stroke-width:0.5;" x="341.26142449" xlink:href="#ma4d69dee0c" y="256.978285714"/>
     <use style="fill:#0000ff;stroke:#000000;stroke-width:0.5;" x="342.394173228" xlink:href="#ma4d69dee0c" y="254.016"/>
     <use style="fill:#0000ff;stroke:#000000;stroke-width:0.5;" x="343.537969199" xlink:href="#ma4d69dee0c" y="253.522285714"/>
     <use style="fill:#0000ff;stroke:#000000;stroke-width:0.5;" x="344.693305792" xlink:href="#ma4d69dee0c" y="253.028571429"/>
     <use style="fill:#0000ff;stroke:#000000;stroke-width:0.5;" x="345.860702681" xlink:href="#ma4d69dee0c" y="253.028571429"/>
     <use style="fill:#0000ff;stroke:#000000;stroke-width:0.5;" x="347.040707942" xlink:href="#ma4d69dee0c" y="252.041142857"/>
     <use style="fill:#0000ff;stroke:#000000;stroke-width:0.5;" x="348.233900372" xlink:href="#ma4d69dee0c" y="252.041142857"/>
     <use style="fill:#0000ff;stroke:#000000;stroke-width:0.5;" x="349.440892053" xlink:href="#ma4d69dee0c" y="250.56"/>
     <use style="fill:#0000ff;stroke:#000000;stroke-width:0.5;" x="350.66233118" xlink:href="#ma4d69dee0c" y="250.56"/>
     <use style="fill:#0000ff;stroke:#000000;stroke-width:0.5;" x="351.898905199" xlink:href="#ma4d69dee0c" y="250.066285714"/>
     <use style="fill:#0000ff;stroke:#000000;stroke-width:0.5;" x="353.151344281" xlink:href="#ma4d69dee0c" y="249.572571429"/>
     <use style="fill:#0000ff;stroke:#000000;stroke-width:0.5;" x="354.420425191" xlink:href="#ma4d69dee0c" y="247.597714286"/>
     <use style="fill:#0000ff;stroke:#000000;stroke-width:0.5;" x="355.706975604" xlink:href="#ma4d69dee0c" y="247.597714286"/>
     <use style="fill:#0000ff;stroke:#000000;stroke-width:0.5;" x="357.011878927" xlink:href="#ma4d69dee0c" y="247.597714286"/>
     <use style="fill:#0000ff;stroke:#000000;stroke-width:0.5;" x="358.3360797" xlink:href="#ma4d69dee0c" y="247.104"/>
     <use style="fill:#0000ff;stroke:#000000;stroke-width:0.5;" x="359.680589678" xlink:href="#ma4d69dee0c" y="246.116571429"/>
     <use style="fill:#0000ff;stroke:#000000;stroke-width:0.5;" x="361.046494675" xlink:href="#ma4d69dee0c" y="245.622857143"/>
     <use style="fill:#0000ff;stroke:#000000;stroke-width:0.5;" x="362.434962315" xlink:href="#ma4d69dee0c" y="245.622857143"/>
     <use style="fill:#0000ff;stroke:#000000;stroke-width:0.5;" x="363.847250814" xlink:href="#ma4d69dee0c" y="244.635428571"/>
     <use style="fill:#0000ff;stroke:#000000;stroke-width:0.5;" x="365.284718984" xlink:href="#ma4d69dee0c" y="244.635428571"/>
     <use style="fill:#0000ff;stroke:#000000;stroke-width:0.5;" x="366.748837662" xlink:href="#ma4d69dee0c" y="243.648"/>
     <use style="fill:#0000ff;stroke:#000000;stroke-width:0.5;" x="368.241202808" xlink:href="#ma4d69dee0c" y="243.154285714"/>
     <use style="fill:#0000ff;stroke:#000000;stroke-width:0.5;" x="369.763550596" xlink:href="#ma4d69dee0c" y="241.179428571"/>
     <use style="fill:#0000ff;stroke:#000000;stroke-width:0.5;" x="371.317774855" xlink:href="#ma4d69dee0c" y="239.698285714"/>
     <use style="fill:#0000ff;stroke:#000000;stroke-width:0.5;" x="372.905947323" xlink:href="#ma4d69dee0c" y="237.723428571"/>
     <use style="fill:#0000ff;stroke:#000000;stroke-width:0.5;" x="374.530341291" xlink:href="#ma4d69dee0c" y="234.761142857"/>
     <use style="fill:#0000ff;stroke:#000000;stroke-width:0.5;" x="376.193459326" xlink:href="#ma4d69dee0c" y="234.267428571"/>
     <use style="fill:#0000ff;stroke:#000000;stroke-width:0.5;" x="377.898065974" xlink:href="#ma4d69dee0c" y="234.267428571"/>
     <use style="fill:#0000ff;stroke:#000000;stroke-width:0.5;" x="379.647226541" xlink:href="#ma4d69dee0c" y="233.28"/>
     <use style="fill:#0000ff;stroke:#000000;stroke-width:0.5;" x="381.444353391" xlink:href="#ma4d69dee0c" y="233.28"/>
     <use style="fill:#0000ff;stroke:#000000;stroke-width:0.5;" x="383.293261578" xlink:href="#ma4d69dee0c" y="232.292571429"/>
     <use style="fill:#0000ff;stroke:#000000;stroke-width:0.5;" x="385.198236172" xlink:href="#ma4d69dee0c" y="228.836571429"/>
     <use style="fill:#0000ff;stroke:#000000;stroke-width:0.5;" x="387.164114404" xlink:href="#ma4d69dee0c" y="224.393142857"/>
     <use style="fill:#0000ff;stroke:#000000;stroke-width:0.5;" x="389.196386709" xlink:href="#ma4d69dee0c" y="216.493714286"/>
     <use style="fill:#0000ff;stroke:#000000;stroke-width:0.5;" x="391.30132222" xlink:href="#ma4d69dee0c" y="216.0"/>
     <use style="fill:#0000ff;stroke:#000000;stroke-width:0.5;" x="393.486126161" xlink:href="#ma4d69dee0c" y="214.518857143"/>
     <use style="fill:#0000ff;stroke:#000000;stroke-width:0.5;" x="395.759139508" xlink:href="#ma4d69dee0c" y="211.556571429"/>
     <use style="fill:#0000ff;stroke:#000000;stroke-width:0.5;" x="398.130095368" xlink:href="#ma4d69dee0c" y="210.075428571"/>
     <use style="fill:#0000ff;stroke:#000000;stroke-width:0.5;" x="400.610452709" xlink:href="#ma4d69dee0c" y="202.176"/>
     <use style="fill:#0000ff;stroke:#000000;stroke-width:0.5;" x="403.213837457" xlink:href="#ma4d69dee0c" y="201.682285714"/>
     <use style="fill:#0000ff;stroke:#000000;stroke-width:0.5;" x="405.956635512" xlink:href="#ma4d69dee0c" y="197.732571429"/>
     <use style="fill:#0000ff;stroke:#000000;stroke-width:0.5;" x="408.858805605" xlink:href="#ma4d69dee0c" y="196.251428571"/>
     <use style="fill:#0000ff;stroke:#000000;stroke-width:0.5;" x="411.945018307" xlink:href="#ma4d69dee0c" y="192.795428571"/>
     <use style="fill:#0000ff;stroke:#000000;stroke-width:0.5;" x="415.24629318" xlink:href="#ma4d69dee0c" y="191.314285714"/>
     <use style="fill:#0000ff;stroke:#000000;stroke-width:0.5;" x="418.802422619" xlink:href="#ma4d69dee0c" y="187.364571429"/>
     <use style="fill:#0000ff;stroke:#000000;stroke-width:0.5;" x="422.665688173" xlink:href="#ma4d69dee0c" y="187.364571429"/>
     <use style="fill:#0000ff;stroke:#000000;stroke-width:0.5;" x="426.906802658" xlink:href="#ma4d69dee0c" y="180.946285714"/>
     <use style="fill:#0000ff;stroke:#000000;stroke-width:0.5;" x="431.624911697" xlink:href="#ma4d69dee0c" y="178.971428571"/>
     <use style="fill:#0000ff;stroke:#000000;stroke-width:0.5;" x="436.965547444" xlink:href="#ma4d69dee0c" y="153.792"/>
     <use style="fill:#0000ff;stroke:#000000;stroke-width:0.5;" x="443.155659948" xlink:href="#ma4d69dee0c" y="147.867428571"/>
     <use style="fill:#0000ff;stroke:#000000;stroke-width:0.5;" x="450.580138777" xlink:href="#ma4d69dee0c" y="121.206857143"/>
     <use style="fill:#0000ff;stroke:#000000;stroke-width:0.5;" x="459.978586611" xlink:href="#ma4d69dee0c" y="120.713142857"/>
     <use style="fill:#0000ff;stroke:#000000;stroke-width:0.5;" x="473.103737688" xlink:href="#ma4d69dee0c" y="114.294857143"/>
     <use style="fill:#0000ff;stroke:#000000;stroke-width:0.5;" x="496.131714244" xlink:href="#ma4d69dee0c" y="70.848"/>
    </g>
   </g>
   <g id="line2d_2">
    <path clip-path="url(#pd7d4d207bf)" d="M 94.268286 349.559572 
L 496.131714 180.546394 
L 496.131714 180.546394 
" style="fill:none;stroke:#ff0000;stroke-linecap:square;"/>
   </g>
   <g id="patch_3">
    <path d="M 72 43.2 
L 518.4 43.2 
" style="fill:none;stroke:#000000;stroke-linecap:square;stroke-linejoin:miter;"/>
   </g>
   <g id="patch_4">
    <path d="M 518.4 388.8 
L 518.4 43.2 
" style="fill:none;stroke:#000000;stroke-linecap:square;stroke-linejoin:miter;"/>
   </g>
   <g id="patch_5">
    <path d="M 72 388.8 
L 518.4 388.8 
" style="fill:none;stroke:#000000;stroke-linecap:square;stroke-linejoin:miter;"/>
   </g>
   <g id="patch_6">
    <path d="M 72 388.8 
L 72 43.2 
" style="fill:none;stroke:#000000;stroke-linecap:square;stroke-linejoin:miter;"/>
   </g>
   <g id="matplotlib.axis_1">
    <g id="xtick_1">
     <g id="line2d_3">
      <defs>
       <path d="M 0 0 
L 0 -4 
" id="m29a1e693ed" style="stroke:#000000;stroke-width:0.5;"/>
      </defs>
      <g>
       <use style="stroke:#000000;stroke-width:0.5;" x="72.0" xlink:href="#m29a1e693ed" y="388.8"/>
      </g>
     </g>
     <g id="line2d_4">
      <defs>
       <path d="M 0 0 
L 0 4 
" id="mde130e6e6d" style="stroke:#000000;stroke-width:0.5;"/>
      </defs>
      <g>
       <use style="stroke:#000000;stroke-width:0.5;" x="72.0" xlink:href="#mde130e6e6d" y="43.2"/>
      </g>
     </g>
     <g id="text_1">
      <!-- −3 -->
      <defs>
       <path d="M 10.59375 35.5 
L 73.1875 35.5 
L 73.1875 27.203125 
L 10.59375 27.203125 
z
" id="BitstreamVeraSans-Roman-2212"/>
       <path d="M 40.578125 39.3125 
Q 47.65625 37.796875 51.625 33 
Q 55.609375 28.21875 55.609375 21.1875 
Q 55.609375 10.40625 48.1875 4.484375 
Q 40.765625 -1.421875 27.09375 -1.421875 
Q 22.515625 -1.421875 17.65625 -0.515625 
Q 12.796875 0.390625 7.625 2.203125 
L 7.625 11.71875 
Q 11.71875 9.328125 16.59375 8.109375 
Q 21.484375 6.890625 26.8125 6.890625 
Q 36.078125 6.890625 40.9375 10.546875 
Q 45.796875 14.203125 45.796875 21.1875 
Q 45.796875 27.640625 41.28125 31.265625 
Q 36.765625 34.90625 28.71875 34.90625 
L 20.21875 34.90625 
L 20.21875 43.015625 
L 29.109375 43.015625 
Q 36.375 43.015625 40.234375 45.921875 
Q 44.09375 48.828125 44.09375 54.296875 
Q 44.09375 59.90625 40.109375 62.90625 
Q 36.140625 65.921875 28.71875 65.921875 
Q 24.65625 65.921875 20.015625 65.03125 
Q 15.375 64.15625 9.8125 62.3125 
L 9.8125 71.09375 
Q 15.4375 72.65625 20.34375 73.4375 
Q 25.25 74.21875 29.59375 74.21875 
Q 40.828125 74.21875 47.359375 69.109375 
Q 53.90625 64.015625 53.90625 55.328125 
Q 53.90625 49.265625 50.4375 45.09375 
Q 46.96875 40.921875 40.578125 39.3125 
" id="BitstreamVeraSans-Roman-33"/>
      </defs>
      <g transform="translate(63.1546875 401.918125)scale(0.12 -0.12)">
       <use xlink:href="#BitstreamVeraSans-Roman-2212"/>
       <use x="83.7890625" xlink:href="#BitstreamVeraSans-Roman-33"/>
      </g>
     </g>
    </g>
    <g id="xtick_2">
     <g id="line2d_5">
      <g>
       <use style="stroke:#000000;stroke-width:0.5;" x="146.4" xlink:href="#m29a1e693ed" y="388.8"/>
      </g>
     </g>
     <g id="line2d_6">
      <g>
       <use style="stroke:#000000;stroke-width:0.5;" x="146.4" xlink:href="#mde130e6e6d" y="43.2"/>
      </g>
     </g>
     <g id="text_2">
      <!-- −2 -->
      <defs>
       <path d="M 19.1875 8.296875 
L 53.609375 8.296875 
L 53.609375 0 
L 7.328125 0 
L 7.328125 8.296875 
Q 12.9375 14.109375 22.625 23.890625 
Q 32.328125 33.6875 34.8125 36.53125 
Q 39.546875 41.84375 41.421875 45.53125 
Q 43.3125 49.21875 43.3125 52.78125 
Q 43.3125 58.59375 39.234375 62.25 
Q 35.15625 65.921875 28.609375 65.921875 
Q 23.96875 65.921875 18.8125 64.3125 
Q 13.671875 62.703125 7.8125 59.421875 
L 7.8125 69.390625 
Q 13.765625 71.78125 18.9375 73 
Q 24.125 74.21875 28.421875 74.21875 
Q 39.75 74.21875 46.484375 68.546875 
Q 53.21875 62.890625 53.21875 53.421875 
Q 53.21875 48.921875 51.53125 44.890625 
Q 49.859375 40.875 45.40625 35.40625 
Q 44.1875 33.984375 37.640625 27.21875 
Q 31.109375 20.453125 19.1875 8.296875 
" id="BitstreamVeraSans-Roman-32"/>
      </defs>
      <g transform="translate(137.5546875 401.918125)scale(0.12 -0.12)">
       <use xlink:href="#BitstreamVeraSans-Roman-2212"/>
       <use x="83.7890625" xlink:href="#BitstreamVeraSans-Roman-32"/>
      </g>
     </g>
    </g>
    <g id="xtick_3">
     <g id="line2d_7">
      <g>
       <use style="stroke:#000000;stroke-width:0.5;" x="220.8" xlink:href="#m29a1e693ed" y="388.8"/>
      </g>
     </g>
     <g id="line2d_8">
      <g>
       <use style="stroke:#000000;stroke-width:0.5;" x="220.8" xlink:href="#mde130e6e6d" y="43.2"/>
      </g>
     </g>
     <g id="text_3">
      <!-- −1 -->
      <defs>
       <path d="M 12.40625 8.296875 
L 28.515625 8.296875 
L 28.515625 63.921875 
L 10.984375 60.40625 
L 10.984375 69.390625 
L 28.421875 72.90625 
L 38.28125 72.90625 
L 38.28125 8.296875 
L 54.390625 8.296875 
L 54.390625 0 
L 12.40625 0 
z
" id="BitstreamVeraSans-Roman-31"/>
      </defs>
      <g transform="translate(211.9546875 401.918125)scale(0.12 -0.12)">
       <use xlink:href="#BitstreamVeraSans-Roman-2212"/>
       <use x="83.7890625" xlink:href="#BitstreamVeraSans-Roman-31"/>
      </g>
     </g>
    </g>
    <g id="xtick_4">
     <g id="line2d_9">
      <g>
       <use style="stroke:#000000;stroke-width:0.5;" x="295.2" xlink:href="#m29a1e693ed" y="388.8"/>
      </g>
     </g>
     <g id="line2d_10">
      <g>
       <use style="stroke:#000000;stroke-width:0.5;" x="295.2" xlink:href="#mde130e6e6d" y="43.2"/>
      </g>
     </g>
     <g id="text_4">
      <!-- 0 -->
      <defs>
       <path d="M 31.78125 66.40625 
Q 24.171875 66.40625 20.328125 58.90625 
Q 16.5 51.421875 16.5 36.375 
Q 16.5 21.390625 20.328125 13.890625 
Q 24.171875 6.390625 31.78125 6.390625 
Q 39.453125 6.390625 43.28125 13.890625 
Q 47.125 21.390625 47.125 36.375 
Q 47.125 51.421875 43.28125 58.90625 
Q 39.453125 66.40625 31.78125 66.40625 
M 31.78125 74.21875 
Q 44.046875 74.21875 50.515625 64.515625 
Q 56.984375 54.828125 56.984375 36.375 
Q 56.984375 17.96875 50.515625 8.265625 
Q 44.046875 -1.421875 31.78125 -1.421875 
Q 19.53125 -1.421875 13.0625 8.265625 
Q 6.59375 17.96875 6.59375 36.375 
Q 6.59375 54.828125 13.0625 64.515625 
Q 19.53125 74.21875 31.78125 74.21875 
" id="BitstreamVeraSans-Roman-30"/>
      </defs>
      <g transform="translate(291.3825 401.918125)scale(0.12 -0.12)">
       <use xlink:href="#BitstreamVeraSans-Roman-30"/>
      </g>
     </g>
    </g>
    <g id="xtick_5">
     <g id="line2d_11">
      <g>
       <use style="stroke:#000000;stroke-width:0.5;" x="369.6" xlink:href="#m29a1e693ed" y="388.8"/>
      </g>
     </g>
     <g id="line2d_12">
      <g>
       <use style="stroke:#000000;stroke-width:0.5;" x="369.6" xlink:href="#mde130e6e6d" y="43.2"/>
      </g>
     </g>
     <g id="text_5">
      <!-- 1 -->
      <g transform="translate(365.7825 401.918125)scale(0.12 -0.12)">
       <use xlink:href="#BitstreamVeraSans-Roman-31"/>
      </g>
     </g>
    </g>
    <g id="xtick_6">
     <g id="line2d_13">
      <g>
       <use style="stroke:#000000;stroke-width:0.5;" x="444.0" xlink:href="#m29a1e693ed" y="388.8"/>
      </g>
     </g>
     <g id="line2d_14">
      <g>
       <use style="stroke:#000000;stroke-width:0.5;" x="444.0" xlink:href="#mde130e6e6d" y="43.2"/>
      </g>
     </g>
     <g id="text_6">
      <!-- 2 -->
      <g transform="translate(440.1825 401.918125)scale(0.12 -0.12)">
       <use xlink:href="#BitstreamVeraSans-Roman-32"/>
      </g>
     </g>
    </g>
    <g id="xtick_7">
     <g id="line2d_15">
      <g>
       <use style="stroke:#000000;stroke-width:0.5;" x="518.4" xlink:href="#m29a1e693ed" y="388.8"/>
      </g>
     </g>
     <g id="line2d_16">
      <g>
       <use style="stroke:#000000;stroke-width:0.5;" x="518.4" xlink:href="#mde130e6e6d" y="43.2"/>
      </g>
     </g>
     <g id="text_7">
      <!-- 3 -->
      <g transform="translate(514.5825 401.918125)scale(0.12 -0.12)">
       <use xlink:href="#BitstreamVeraSans-Roman-33"/>
      </g>
     </g>
    </g>
    <g id="text_8">
     <!-- Quantiles -->
     <defs>
      <path d="M 54.890625 33.015625 
L 54.890625 0 
L 45.90625 0 
L 45.90625 32.71875 
Q 45.90625 40.484375 42.875 44.328125 
Q 39.84375 48.1875 33.796875 48.1875 
Q 26.515625 48.1875 22.3125 43.546875 
Q 18.109375 38.921875 18.109375 30.90625 
L 18.109375 0 
L 9.078125 0 
L 9.078125 54.6875 
L 18.109375 54.6875 
L 18.109375 46.1875 
Q 21.34375 51.125 25.703125 53.5625 
Q 30.078125 56 35.796875 56 
Q 45.21875 56 50.046875 50.171875 
Q 54.890625 44.34375 54.890625 33.015625 
" id="BitstreamVeraSans-Roman-6e"/>
      <path d="M 9.421875 75.984375 
L 18.40625 75.984375 
L 18.40625 0 
L 9.421875 0 
z
" id="BitstreamVeraSans-Roman-6c"/>
      <path d="M 39.40625 66.21875 
Q 28.65625 66.21875 22.328125 58.203125 
Q 16.015625 50.203125 16.015625 36.375 
Q 16.015625 22.609375 22.328125 14.59375 
Q 28.65625 6.59375 39.40625 6.59375 
Q 50.140625 6.59375 56.421875 14.59375 
Q 62.703125 22.609375 62.703125 36.375 
Q 62.703125 50.203125 56.421875 58.203125 
Q 50.140625 66.21875 39.40625 66.21875 
M 53.21875 1.3125 
L 66.21875 -12.890625 
L 54.296875 -12.890625 
L 43.5 -1.21875 
Q 41.890625 -1.3125 41.03125 -1.359375 
Q 40.1875 -1.421875 39.40625 -1.421875 
Q 24.03125 -1.421875 14.8125 8.859375 
Q 5.609375 19.140625 5.609375 36.375 
Q 5.609375 53.65625 14.8125 63.9375 
Q 24.03125 74.21875 39.40625 74.21875 
Q 54.734375 74.21875 63.90625 63.9375 
Q 73.09375 53.65625 73.09375 36.375 
Q 73.09375 23.6875 67.984375 14.640625 
Q 62.890625 5.609375 53.21875 1.3125 
" id="BitstreamVeraSans-Roman-51"/>
      <path d="M 9.421875 54.6875 
L 18.40625 54.6875 
L 18.40625 0 
L 9.421875 0 
z
M 9.421875 75.984375 
L 18.40625 75.984375 
L 18.40625 64.59375 
L 9.421875 64.59375 
z
" id="BitstreamVeraSans-Roman-69"/>
      <path d="M 56.203125 29.59375 
L 56.203125 25.203125 
L 14.890625 25.203125 
Q 15.484375 15.921875 20.484375 11.0625 
Q 25.484375 6.203125 34.421875 6.203125 
Q 39.59375 6.203125 44.453125 7.46875 
Q 49.3125 8.734375 54.109375 11.28125 
L 54.109375 2.78125 
Q 49.265625 0.734375 44.1875 -0.34375 
Q 39.109375 -1.421875 33.890625 -1.421875 
Q 20.796875 -1.421875 13.15625 6.1875 
Q 5.515625 13.8125 5.515625 26.8125 
Q 5.515625 40.234375 12.765625 48.109375 
Q 20.015625 56 32.328125 56 
Q 43.359375 56 49.78125 48.890625 
Q 56.203125 41.796875 56.203125 29.59375 
M 47.21875 32.234375 
Q 47.125 39.59375 43.09375 43.984375 
Q 39.0625 48.390625 32.421875 48.390625 
Q 24.90625 48.390625 20.390625 44.140625 
Q 15.875 39.890625 15.1875 32.171875 
z
" id="BitstreamVeraSans-Roman-65"/>
      <path d="M 18.3125 70.21875 
L 18.3125 54.6875 
L 36.8125 54.6875 
L 36.8125 47.703125 
L 18.3125 47.703125 
L 18.3125 18.015625 
Q 18.3125 11.328125 20.140625 9.421875 
Q 21.96875 7.515625 27.59375 7.515625 
L 36.8125 7.515625 
L 36.8125 0 
L 27.59375 0 
Q 17.1875 0 13.234375 3.875 
Q 9.28125 7.765625 9.28125 18.015625 
L 9.28125 47.703125 
L 2.6875 47.703125 
L 2.6875 54.6875 
L 9.28125 54.6875 
L 9.28125 70.21875 
z
" id="BitstreamVeraSans-Roman-74"/>
      <path d="M 8.5 21.578125 
L 8.5 54.6875 
L 17.484375 54.6875 
L 17.484375 21.921875 
Q 17.484375 14.15625 20.5 10.265625 
Q 23.53125 6.390625 29.59375 6.390625 
Q 36.859375 6.390625 41.078125 11.03125 
Q 45.3125 15.671875 45.3125 23.6875 
L 45.3125 54.6875 
L 54.296875 54.6875 
L 54.296875 0 
L 45.3125 0 
L 45.3125 8.40625 
Q 42.046875 3.421875 37.71875 1 
Q 33.40625 -1.421875 27.6875 -1.421875 
Q 18.265625 -1.421875 13.375 4.4375 
Q 8.5 10.296875 8.5 21.578125 
" id="BitstreamVeraSans-Roman-75"/>
      <path d="M 34.28125 27.484375 
Q 23.390625 27.484375 19.1875 25 
Q 14.984375 22.515625 14.984375 16.5 
Q 14.984375 11.71875 18.140625 8.90625 
Q 21.296875 6.109375 26.703125 6.109375 
Q 34.1875 6.109375 38.703125 11.40625 
Q 43.21875 16.703125 43.21875 25.484375 
L 43.21875 27.484375 
z
M 52.203125 31.203125 
L 52.203125 0 
L 43.21875 0 
L 43.21875 8.296875 
Q 40.140625 3.328125 35.546875 0.953125 
Q 30.953125 -1.421875 24.3125 -1.421875 
Q 15.921875 -1.421875 10.953125 3.296875 
Q 6 8.015625 6 15.921875 
Q 6 25.140625 12.171875 29.828125 
Q 18.359375 34.515625 30.609375 34.515625 
L 43.21875 34.515625 
L 43.21875 35.40625 
Q 43.21875 41.609375 39.140625 45 
Q 35.0625 48.390625 27.6875 48.390625 
Q 23 48.390625 18.546875 47.265625 
Q 14.109375 46.140625 10.015625 43.890625 
L 10.015625 52.203125 
Q 14.9375 54.109375 19.578125 55.046875 
Q 24.21875 56 28.609375 56 
Q 40.484375 56 46.34375 49.84375 
Q 52.203125 43.703125 52.203125 31.203125 
" id="BitstreamVeraSans-Roman-61"/>
      <path d="M 44.28125 53.078125 
L 44.28125 44.578125 
Q 40.484375 46.53125 36.375 47.5 
Q 32.28125 48.484375 27.875 48.484375 
Q 21.1875 48.484375 17.84375 46.4375 
Q 14.5 44.390625 14.5 40.28125 
Q 14.5 37.15625 16.890625 35.375 
Q 19.28125 33.59375 26.515625 31.984375 
L 29.59375 31.296875 
Q 39.15625 29.25 43.1875 25.515625 
Q 47.21875 21.78125 47.21875 15.09375 
Q 47.21875 7.46875 41.1875 3.015625 
Q 35.15625 -1.421875 24.609375 -1.421875 
Q 20.21875 -1.421875 15.453125 -0.5625 
Q 10.6875 0.296875 5.421875 2 
L 5.421875 11.28125 
Q 10.40625 8.6875 15.234375 7.390625 
Q 20.0625 6.109375 24.8125 6.109375 
Q 31.15625 6.109375 34.5625 8.28125 
Q 37.984375 10.453125 37.984375 14.40625 
Q 37.984375 18.0625 35.515625 20.015625 
Q 33.0625 21.96875 24.703125 23.78125 
L 21.578125 24.515625 
Q 13.234375 26.265625 9.515625 29.90625 
Q 5.8125 33.546875 5.8125 39.890625 
Q 5.8125 47.609375 11.28125 51.796875 
Q 16.75 56 26.8125 56 
Q 31.78125 56 36.171875 55.265625 
Q 40.578125 54.546875 44.28125 53.078125 
" id="BitstreamVeraSans-Roman-73"/>
     </defs>
     <g transform="translate(266.6915625 418.531875)scale(0.12 -0.12)">
      <use xlink:href="#BitstreamVeraSans-Roman-51"/>
      <use x="78.7109375" xlink:href="#BitstreamVeraSans-Roman-75"/>
      <use x="142.08984375" xlink:href="#BitstreamVeraSans-Roman-61"/>
      <use x="203.369140625" xlink:href="#BitstreamVeraSans-Roman-6e"/>
      <use x="266.748046875" xlink:href="#BitstreamVeraSans-Roman-74"/>
      <use x="305.95703125" xlink:href="#BitstreamVeraSans-Roman-69"/>
      <use x="333.740234375" xlink:href="#BitstreamVeraSans-Roman-6c"/>
      <use x="361.5234375" xlink:href="#BitstreamVeraSans-Roman-65"/>
      <use x="423.046875" xlink:href="#BitstreamVeraSans-Roman-73"/>
     </g>
    </g>
   </g>
   <g id="matplotlib.axis_2">
    <g id="ytick_1">
     <g id="line2d_17">
      <defs>
       <path d="M 0 0 
L 4 0 
" id="m8d63211f00" style="stroke:#000000;stroke-width:0.5;"/>
      </defs>
      <g>
       <use style="stroke:#000000;stroke-width:0.5;" x="72.0" xlink:href="#m8d63211f00" y="388.8"/>
      </g>
     </g>
     <g id="line2d_18">
      <defs>
       <path d="M 0 0 
L -4 0 
" id="m22ac06a4e7" style="stroke:#000000;stroke-width:0.5;"/>
      </defs>
      <g>
       <use style="stroke:#000000;stroke-width:0.5;" x="518.4" xlink:href="#m22ac06a4e7" y="388.8"/>
      </g>
     </g>
     <g id="text_9">
      <!-- −20 -->
      <g transform="translate(42.674375 392.11125)scale(0.12 -0.12)">
       <use xlink:href="#BitstreamVeraSans-Roman-2212"/>
       <use x="83.7890625" xlink:href="#BitstreamVeraSans-Roman-32"/>
       <use x="147.412109375" xlink:href="#BitstreamVeraSans-Roman-30"/>
      </g>
     </g>
    </g>
    <g id="ytick_2">
     <g id="line2d_19">
      <g>
       <use style="stroke:#000000;stroke-width:0.5;" x="72.0" xlink:href="#m8d63211f00" y="339.428571429"/>
      </g>
     </g>
     <g id="line2d_20">
      <g>
       <use style="stroke:#000000;stroke-width:0.5;" x="518.4" xlink:href="#m22ac06a4e7" y="339.428571429"/>
      </g>
     </g>
     <g id="text_10">
      <!-- −10 -->
      <g transform="translate(42.674375 342.739821429)scale(0.12 -0.12)">
       <use xlink:href="#BitstreamVeraSans-Roman-2212"/>
       <use x="83.7890625" xlink:href="#BitstreamVeraSans-Roman-31"/>
       <use x="147.412109375" xlink:href="#BitstreamVeraSans-Roman-30"/>
      </g>
     </g>
    </g>
    <g id="ytick_3">
     <g id="line2d_21">
      <g>
       <use style="stroke:#000000;stroke-width:0.5;" x="72.0" xlink:href="#m8d63211f00" y="290.057142857"/>
      </g>
     </g>
     <g id="line2d_22">
      <g>
       <use style="stroke:#000000;stroke-width:0.5;" x="518.4" xlink:href="#m22ac06a4e7" y="290.057142857"/>
      </g>
     </g>
     <g id="text_11">
      <!-- 0 -->
      <g transform="translate(60.365 293.368392857)scale(0.12 -0.12)">
       <use xlink:href="#BitstreamVeraSans-Roman-30"/>
      </g>
     </g>
    </g>
    <g id="ytick_4">
     <g id="line2d_23">
      <g>
       <use style="stroke:#000000;stroke-width:0.5;" x="72.0" xlink:href="#m8d63211f00" y="240.685714286"/>
      </g>
     </g>
     <g id="line2d_24">
      <g>
       <use style="stroke:#000000;stroke-width:0.5;" x="518.4" xlink:href="#m22ac06a4e7" y="240.685714286"/>
      </g>
     </g>
     <g id="text_12">
      <!-- 10 -->
      <g transform="translate(52.73 243.996964286)scale(0.12 -0.12)">
       <use xlink:href="#BitstreamVeraSans-Roman-31"/>
       <use x="63.623046875" xlink:href="#BitstreamVeraSans-Roman-30"/>
      </g>
     </g>
    </g>
    <g id="ytick_5">
     <g id="line2d_25">
      <g>
       <use style="stroke:#000000;stroke-width:0.5;" x="72.0" xlink:href="#m8d63211f00" y="191.314285714"/>
      </g>
     </g>
     <g id="line2d_26">
      <g>
       <use style="stroke:#000000;stroke-width:0.5;" x="518.4" xlink:href="#m22ac06a4e7" y="191.314285714"/>
      </g>
     </g>
     <g id="text_13">
      <!-- 20 -->
      <g transform="translate(52.73 194.625535714)scale(0.12 -0.12)">
       <use xlink:href="#BitstreamVeraSans-Roman-32"/>
       <use x="63.623046875" xlink:href="#BitstreamVeraSans-Roman-30"/>
      </g>
     </g>
    </g>
    <g id="ytick_6">
     <g id="line2d_27">
      <g>
       <use style="stroke:#000000;stroke-width:0.5;" x="72.0" xlink:href="#m8d63211f00" y="141.942857143"/>
      </g>
     </g>
     <g id="line2d_28">
      <g>
       <use style="stroke:#000000;stroke-width:0.5;" x="518.4" xlink:href="#m22ac06a4e7" y="141.942857143"/>
      </g>
     </g>
     <g id="text_14">
      <!-- 30 -->
      <g transform="translate(52.73 145.254107143)scale(0.12 -0.12)">
       <use xlink:href="#BitstreamVeraSans-Roman-33"/>
       <use x="63.623046875" xlink:href="#BitstreamVeraSans-Roman-30"/>
      </g>
     </g>
    </g>
    <g id="ytick_7">
     <g id="line2d_29">
      <g>
       <use style="stroke:#000000;stroke-width:0.5;" x="72.0" xlink:href="#m8d63211f00" y="92.5714285714"/>
      </g>
     </g>
     <g id="line2d_30">
      <g>
       <use style="stroke:#000000;stroke-width:0.5;" x="518.4" xlink:href="#m22ac06a4e7" y="92.5714285714"/>
      </g>
     </g>
     <g id="text_15">
      <!-- 40 -->
      <defs>
       <path d="M 37.796875 64.3125 
L 12.890625 25.390625 
L 37.796875 25.390625 
z
M 35.203125 72.90625 
L 47.609375 72.90625 
L 47.609375 25.390625 
L 58.015625 25.390625 
L 58.015625 17.1875 
L 47.609375 17.1875 
L 47.609375 0 
L 37.796875 0 
L 37.796875 17.1875 
L 4.890625 17.1875 
L 4.890625 26.703125 
z
" id="BitstreamVeraSans-Roman-34"/>
      </defs>
      <g transform="translate(52.73 95.8826785714)scale(0.12 -0.12)">
       <use xlink:href="#BitstreamVeraSans-Roman-34"/>
       <use x="63.623046875" xlink:href="#BitstreamVeraSans-Roman-30"/>
      </g>
     </g>
    </g>
    <g id="ytick_8">
     <g id="line2d_31">
      <g>
       <use style="stroke:#000000;stroke-width:0.5;" x="72.0" xlink:href="#m8d63211f00" y="43.2"/>
      </g>
     </g>
     <g id="line2d_32">
      <g>
       <use style="stroke:#000000;stroke-width:0.5;" x="518.4" xlink:href="#m22ac06a4e7" y="43.2"/>
      </g>
     </g>
     <g id="text_16">
      <!-- 50 -->
      <defs>
       <path d="M 10.796875 72.90625 
L 49.515625 72.90625 
L 49.515625 64.59375 
L 19.828125 64.59375 
L 19.828125 46.734375 
Q 21.96875 47.46875 24.109375 47.828125 
Q 26.265625 48.1875 28.421875 48.1875 
Q 40.625 48.1875 47.75 41.5 
Q 54.890625 34.8125 54.890625 23.390625 
Q 54.890625 11.625 47.5625 5.09375 
Q 40.234375 -1.421875 26.90625 -1.421875 
Q 22.3125 -1.421875 17.546875 -0.640625 
Q 12.796875 0.140625 7.71875 1.703125 
L 7.71875 11.625 
Q 12.109375 9.234375 16.796875 8.0625 
Q 21.484375 6.890625 26.703125 6.890625 
Q 35.15625 6.890625 40.078125 11.328125 
Q 45.015625 15.765625 45.015625 23.390625 
Q 45.015625 31 40.078125 35.4375 
Q 35.15625 39.890625 26.703125 39.890625 
Q 22.75 39.890625 18.8125 39.015625 
Q 14.890625 38.140625 10.796875 36.28125 
z
" id="BitstreamVeraSans-Roman-35"/>
      </defs>
      <g transform="translate(52.73 46.51125)scale(0.12 -0.12)">
       <use xlink:href="#BitstreamVeraSans-Roman-35"/>
       <use x="63.623046875" xlink:href="#BitstreamVeraSans-Roman-30"/>
      </g>
     </g>
    </g>
    <g id="text_17">
     <!-- Ordered Values -->
     <defs>
      <path id="BitstreamVeraSans-Roman-20"/>
      <path d="M 39.40625 66.21875 
Q 28.65625 66.21875 22.328125 58.203125 
Q 16.015625 50.203125 16.015625 36.375 
Q 16.015625 22.609375 22.328125 14.59375 
Q 28.65625 6.59375 39.40625 6.59375 
Q 50.140625 6.59375 56.421875 14.59375 
Q 62.703125 22.609375 62.703125 36.375 
Q 62.703125 50.203125 56.421875 58.203125 
Q 50.140625 66.21875 39.40625 66.21875 
M 39.40625 74.21875 
Q 54.734375 74.21875 63.90625 63.9375 
Q 73.09375 53.65625 73.09375 36.375 
Q 73.09375 19.140625 63.90625 8.859375 
Q 54.734375 -1.421875 39.40625 -1.421875 
Q 24.03125 -1.421875 14.8125 8.828125 
Q 5.609375 19.09375 5.609375 36.375 
Q 5.609375 53.65625 14.8125 63.9375 
Q 24.03125 74.21875 39.40625 74.21875 
" id="BitstreamVeraSans-Roman-4f"/>
      <path d="M 41.109375 46.296875 
Q 39.59375 47.171875 37.8125 47.578125 
Q 36.03125 48 33.890625 48 
Q 26.265625 48 22.1875 43.046875 
Q 18.109375 38.09375 18.109375 28.8125 
L 18.109375 0 
L 9.078125 0 
L 9.078125 54.6875 
L 18.109375 54.6875 
L 18.109375 46.1875 
Q 20.953125 51.171875 25.484375 53.578125 
Q 30.03125 56 36.53125 56 
Q 37.453125 56 38.578125 55.875 
Q 39.703125 55.765625 41.0625 55.515625 
z
" id="BitstreamVeraSans-Roman-72"/>
      <path d="M 28.609375 0 
L 0.78125 72.90625 
L 11.078125 72.90625 
L 34.1875 11.53125 
L 57.328125 72.90625 
L 67.578125 72.90625 
L 39.796875 0 
z
" id="BitstreamVeraSans-Roman-56"/>
      <path d="M 45.40625 46.390625 
L 45.40625 75.984375 
L 54.390625 75.984375 
L 54.390625 0 
L 45.40625 0 
L 45.40625 8.203125 
Q 42.578125 3.328125 38.25 0.953125 
Q 33.9375 -1.421875 27.875 -1.421875 
Q 17.96875 -1.421875 11.734375 6.484375 
Q 5.515625 14.40625 5.515625 27.296875 
Q 5.515625 40.1875 11.734375 48.09375 
Q 17.96875 56 27.875 56 
Q 33.9375 56 38.25 53.625 
Q 42.578125 51.265625 45.40625 46.390625 
M 14.796875 27.296875 
Q 14.796875 17.390625 18.875 11.75 
Q 22.953125 6.109375 30.078125 6.109375 
Q 37.203125 6.109375 41.296875 11.75 
Q 45.40625 17.390625 45.40625 27.296875 
Q 45.40625 37.203125 41.296875 42.84375 
Q 37.203125 48.484375 30.078125 48.484375 
Q 22.953125 48.484375 18.875 42.84375 
Q 14.796875 37.203125 14.796875 27.296875 
" id="BitstreamVeraSans-Roman-64"/>
     </defs>
     <g transform="translate(35.17875 262.62375)rotate(-90.0)scale(0.12 -0.12)">
      <use xlink:href="#BitstreamVeraSans-Roman-4f"/>
      <use x="78.7109375" xlink:href="#BitstreamVeraSans-Roman-72"/>
      <use x="119.80859375" xlink:href="#BitstreamVeraSans-Roman-64"/>
      <use x="183.28515625" xlink:href="#BitstreamVeraSans-Roman-65"/>
      <use x="244.80859375" xlink:href="#BitstreamVeraSans-Roman-72"/>
      <use x="285.890625" xlink:href="#BitstreamVeraSans-Roman-65"/>
      <use x="347.4140625" xlink:href="#BitstreamVeraSans-Roman-64"/>
      <use x="410.890625" xlink:href="#BitstreamVeraSans-Roman-20"/>
      <use x="442.677734375" xlink:href="#BitstreamVeraSans-Roman-56"/>
      <use x="510.9765625" xlink:href="#BitstreamVeraSans-Roman-61"/>
      <use x="572.255859375" xlink:href="#BitstreamVeraSans-Roman-6c"/>
      <use x="600.0390625" xlink:href="#BitstreamVeraSans-Roman-75"/>
      <use x="663.41796875" xlink:href="#BitstreamVeraSans-Roman-65"/>
      <use x="724.94140625" xlink:href="#BitstreamVeraSans-Roman-73"/>
     </g>
    </g>
   </g>
   <g id="text_18">
    <!-- $R^2=0.7034$ -->
    <defs>
     <path d="M 9.515625 7.71875 
Q 11.859375 4.296875 15.8125 2.640625 
Q 19.78125 0.984375 24.3125 0.984375 
Q 30.125 0.984375 32.5625 5.9375 
Q 35.015625 10.890625 35.015625 17.1875 
Q 35.015625 20.015625 34.5 22.84375 
Q 33.984375 25.6875 32.765625 28.125 
Q 31.546875 30.5625 29.421875 32.03125 
Q 27.296875 33.5 24.21875 33.5 
L 17.578125 33.5 
Q 16.703125 33.5 16.703125 34.421875 
L 16.703125 35.296875 
Q 16.703125 36.078125 17.578125 36.078125 
L 23.09375 36.53125 
Q 26.609375 36.53125 28.921875 39.15625 
Q 31.25 41.796875 32.328125 45.578125 
Q 33.40625 49.359375 33.40625 52.78125 
Q 33.40625 57.5625 31.15625 60.640625 
Q 28.90625 63.71875 24.3125 63.71875 
Q 20.515625 63.71875 17.046875 62.28125 
Q 13.578125 60.84375 11.53125 57.90625 
Q 11.71875 57.953125 11.859375 57.984375 
Q 12.015625 58.015625 12.203125 58.015625 
Q 14.453125 58.015625 15.96875 56.453125 
Q 17.484375 54.890625 17.484375 52.6875 
Q 17.484375 50.53125 15.96875 48.96875 
Q 14.453125 47.40625 12.203125 47.40625 
Q 10.015625 47.40625 8.453125 48.96875 
Q 6.890625 50.53125 6.890625 52.6875 
Q 6.890625 56.984375 9.46875 60.15625 
Q 12.0625 63.328125 16.140625 64.96875 
Q 20.21875 66.609375 24.3125 66.609375 
Q 27.34375 66.609375 30.703125 65.703125 
Q 34.078125 64.796875 36.8125 63.109375 
Q 39.546875 61.421875 41.28125 58.78125 
Q 43.015625 56.15625 43.015625 52.78125 
Q 43.015625 48.578125 41.140625 45.015625 
Q 39.265625 41.453125 35.984375 38.859375 
Q 32.71875 36.28125 28.8125 35.015625 
Q 33.15625 34.1875 37.0625 31.734375 
Q 40.96875 29.296875 43.328125 25.484375 
Q 45.703125 21.6875 45.703125 17.28125 
Q 45.703125 11.765625 42.671875 7.296875 
Q 39.65625 2.828125 34.71875 0.3125 
Q 29.78125 -2.203125 24.3125 -2.203125 
Q 19.625 -2.203125 14.90625 -0.40625 
Q 10.203125 1.375 7.203125 4.9375 
Q 4.203125 8.5 4.203125 13.484375 
Q 4.203125 15.96875 5.859375 17.625 
Q 7.515625 19.28125 10.015625 19.28125 
Q 11.625 19.28125 12.96875 18.53125 
Q 14.3125 17.78125 15.0625 16.40625 
Q 15.828125 15.046875 15.828125 13.484375 
Q 15.828125 11.03125 14.109375 9.375 
Q 12.40625 7.71875 10.015625 7.71875 
z
" id="Cmr10-33"/>
     <path d="M 4.984375 0 
L 4.984375 2.6875 
Q 4.984375 2.9375 5.171875 3.21875 
L 20.703125 20.40625 
Q 24.21875 24.21875 26.40625 26.796875 
Q 28.609375 29.390625 30.75 32.765625 
Q 32.90625 36.140625 34.15625 39.625 
Q 35.40625 43.109375 35.40625 47.015625 
Q 35.40625 51.125 33.890625 54.859375 
Q 32.375 58.59375 29.375 60.84375 
Q 26.375 63.09375 22.125 63.09375 
Q 17.78125 63.09375 14.3125 60.46875 
Q 10.84375 57.859375 9.421875 53.71875 
Q 9.8125 53.8125 10.5 53.8125 
Q 12.75 53.8125 14.328125 52.296875 
Q 15.921875 50.78125 15.921875 48.390625 
Q 15.921875 46.09375 14.328125 44.5 
Q 12.75 42.921875 10.5 42.921875 
Q 8.15625 42.921875 6.5625 44.546875 
Q 4.984375 46.1875 4.984375 48.390625 
Q 4.984375 52.15625 6.390625 55.4375 
Q 7.8125 58.734375 10.46875 61.296875 
Q 13.140625 63.875 16.484375 65.234375 
Q 19.828125 66.609375 23.578125 66.609375 
Q 29.296875 66.609375 34.21875 64.1875 
Q 39.15625 61.765625 42.03125 57.34375 
Q 44.921875 52.9375 44.921875 47.015625 
Q 44.921875 42.671875 43.015625 38.765625 
Q 41.109375 34.859375 38.125 31.65625 
Q 35.15625 28.46875 30.515625 24.40625 
Q 25.875 20.359375 24.421875 19 
L 13.09375 8.109375 
L 22.703125 8.109375 
Q 29.78125 8.109375 34.546875 8.21875 
Q 39.3125 8.34375 39.59375 8.59375 
Q 40.765625 9.859375 42 17.828125 
L 44.921875 17.828125 
L 42.09375 0 
z
" id="Cmr10-32"/>
     <path d="M 25 -2.203125 
Q 12.75 -2.203125 8.328125 7.875 
Q 3.90625 17.96875 3.90625 31.890625 
Q 3.90625 40.578125 5.484375 48.234375 
Q 7.078125 55.90625 11.78125 61.25 
Q 16.5 66.609375 25 66.609375 
Q 31.59375 66.609375 35.78125 63.375 
Q 39.984375 60.15625 42.1875 55.046875 
Q 44.390625 49.953125 45.1875 44.109375 
Q 46 38.28125 46 31.890625 
Q 46 23.296875 44.40625 15.796875 
Q 42.828125 8.296875 38.1875 3.046875 
Q 33.546875 -2.203125 25 -2.203125 
M 25 0.390625 
Q 30.5625 0.390625 33.296875 6.09375 
Q 36.03125 11.8125 36.671875 18.75 
Q 37.3125 25.6875 37.3125 33.5 
Q 37.3125 41.015625 36.671875 47.359375 
Q 36.03125 53.71875 33.3125 58.859375 
Q 30.609375 64.015625 25 64.015625 
Q 19.34375 64.015625 16.609375 58.828125 
Q 13.875 53.65625 13.234375 47.328125 
Q 12.59375 41.015625 12.59375 33.5 
Q 12.59375 27.9375 12.859375 23 
Q 13.140625 18.0625 14.3125 12.8125 
Q 15.484375 7.5625 18.09375 3.96875 
Q 20.703125 0.390625 25 0.390625 
" id="Cmr10-30"/>
     <path d="M 17.390625 2.59375 
Q 17.390625 8.15625 18.359375 13.46875 
Q 19.34375 18.796875 21.21875 24 
Q 23.09375 29.203125 25.75 34.203125 
Q 28.421875 39.203125 31.59375 43.609375 
L 40.71875 56.296875 
L 29.296875 56.296875 
Q 11.53125 56.296875 10.984375 55.8125 
Q 9.671875 54.203125 8.5 46.578125 
L 5.609375 46.578125 
L 8.890625 67.578125 
L 11.8125 67.578125 
L 11.8125 67.28125 
Q 11.8125 65.484375 17.921875 64.9375 
Q 24.03125 64.40625 29.890625 64.40625 
L 48.484375 64.40625 
L 48.484375 61.8125 
Q 48.484375 61.71875 48.453125 61.671875 
Q 48.4375 61.625 48.390625 61.53125 
L 34.625 42.1875 
Q 29.546875 34.671875 28.265625 25.484375 
Q 27 16.3125 27 2.59375 
Q 27 0.640625 25.578125 -0.78125 
Q 24.171875 -2.203125 22.21875 -2.203125 
Q 20.21875 -2.203125 18.796875 -0.78125 
Q 17.390625 0.640625 17.390625 2.59375 
" id="Cmr10-37"/>
     <path d="M 2.78125 16.5 
L 2.78125 20.015625 
L 33.6875 66.109375 
Q 34.03125 66.609375 34.71875 66.609375 
L 36.1875 66.609375 
Q 37.3125 66.609375 37.3125 65.484375 
L 37.3125 20.015625 
L 47.125 20.015625 
L 47.125 16.5 
L 37.3125 16.5 
L 37.3125 6.6875 
Q 37.3125 4.640625 40.234375 4.078125 
Q 43.171875 3.515625 47.015625 3.515625 
L 47.015625 0 
L 19.484375 0 
L 19.484375 3.515625 
Q 23.34375 3.515625 26.265625 4.078125 
Q 29.203125 4.640625 29.203125 6.6875 
L 29.203125 16.5 
z
M 6.109375 20.015625 
L 29.78125 20.015625 
L 29.78125 55.421875 
z
" id="Cmr10-34"/>
     <path d="M 4.890625 0 
Q 3.90625 0 3.90625 1.3125 
Q 3.953125 1.5625 4.09375 2.171875 
Q 4.25 2.78125 4.515625 3.140625 
Q 4.78125 3.515625 5.171875 3.515625 
Q 11.28125 3.515625 13.71875 4.203125 
Q 14.984375 4.640625 15.578125 6.890625 
L 29.296875 61.8125 
Q 29.5 62.796875 29.5 63.1875 
Q 29.5 64.265625 28.328125 64.40625 
Q 26.421875 64.796875 21.09375 64.796875 
Q 20.125 64.796875 20.125 66.109375 
Q 20.171875 66.359375 20.3125 66.96875 
Q 20.453125 67.578125 20.71875 67.9375 
Q 21 68.3125 21.390625 68.3125 
L 51.703125 68.3125 
Q 55.328125 68.3125 59.234375 67.484375 
Q 63.140625 66.65625 66.40625 64.875 
Q 69.671875 63.09375 71.765625 60.125 
Q 73.875 57.171875 73.875 53.21875 
Q 73.875 48.1875 70.546875 44.234375 
Q 67.234375 40.28125 62.15625 37.625 
Q 57.078125 34.96875 52.296875 33.890625 
Q 56.203125 32.46875 58.6875 29.359375 
Q 61.1875 26.265625 61.1875 22.21875 
Q 61.1875 21.6875 61.15625 21.40625 
Q 61.140625 21.140625 61.078125 20.796875 
L 60.296875 11.921875 
Q 60.203125 9.96875 60.109375 8.59375 
Q 60.015625 7.234375 60.015625 6.390625 
Q 60.015625 3.65625 60.8125 2.015625 
Q 61.625 0.390625 64.015625 0.390625 
Q 67.140625 0.390625 69.5 3.296875 
Q 71.875 6.203125 72.609375 9.625 
Q 73.046875 10.5 73.578125 10.5 
L 74.515625 10.5 
Q 75.484375 10.5 75.484375 9.1875 
Q 74.75 6.296875 73.15625 3.703125 
Q 71.578125 1.125 69.15625 -0.53125 
Q 66.75 -2.203125 63.921875 -2.203125 
Q 58.0625 -2.203125 53.9375 0.40625 
Q 49.8125 3.03125 49.8125 8.59375 
Q 49.8125 10.6875 50.203125 12.3125 
L 52.390625 21.1875 
Q 52.78125 22.40625 52.78125 24.03125 
Q 52.78125 28.171875 49.96875 30.53125 
Q 47.171875 32.90625 42.921875 32.90625 
L 30.609375 32.90625 
L 24.03125 6.5 
Q 23.78125 5.671875 23.78125 5.078125 
Q 23.78125 4.046875 25 3.90625 
Q 26.90625 3.515625 32.171875 3.515625 
Q 33.203125 3.515625 33.203125 2.203125 
Q 32.859375 0.78125 32.65625 0.390625 
Q 32.46875 0 31.5 0 
z
M 31.203125 35.5 
L 42.28125 35.5 
Q 53.171875 35.5 58.6875 41.015625 
Q 61.234375 43.5625 62.71875 47.484375 
Q 64.203125 51.421875 64.203125 55.328125 
Q 64.203125 59.03125 62.03125 61.125 
Q 59.859375 63.234375 56.65625 64.015625 
Q 53.46875 64.796875 49.609375 64.796875 
L 42.921875 64.796875 
Q 40.1875 64.796875 39.296875 64.328125 
Q 38.421875 63.875 37.703125 61.375 
z
" id="Cmmi10-52"/>
     <path d="M 7.515625 13.28125 
Q 6.6875 13.28125 6.140625 13.90625 
Q 5.609375 14.546875 5.609375 15.28125 
Q 5.609375 16.109375 6.140625 16.6875 
Q 6.6875 17.28125 7.515625 17.28125 
L 70.3125 17.28125 
Q 71.046875 17.28125 71.578125 16.6875 
Q 72.125 16.109375 72.125 15.28125 
Q 72.125 14.546875 71.578125 13.90625 
Q 71.046875 13.28125 70.3125 13.28125 
z
M 7.515625 32.71875 
Q 6.6875 32.71875 6.140625 33.296875 
Q 5.609375 33.890625 5.609375 34.71875 
Q 5.609375 35.453125 6.140625 36.078125 
Q 6.6875 36.71875 7.515625 36.71875 
L 70.3125 36.71875 
Q 71.046875 36.71875 71.578125 36.078125 
Q 72.125 35.453125 72.125 34.71875 
Q 72.125 33.890625 71.578125 33.296875 
Q 71.046875 32.71875 70.3125 32.71875 
z
" id="Cmr10-3d"/>
     <path d="M 8.40625 5.515625 
Q 8.40625 7.765625 10.0625 9.375 
Q 11.71875 10.984375 13.921875 10.984375 
Q 15.28125 10.984375 16.59375 10.25 
Q 17.921875 9.515625 18.65625 8.203125 
Q 19.390625 6.890625 19.390625 5.515625 
Q 19.390625 3.328125 17.765625 1.65625 
Q 16.15625 0 13.921875 0 
Q 11.71875 0 10.0625 1.65625 
Q 8.40625 3.328125 8.40625 5.515625 
" id="Cmmi10-3a"/>
    </defs>
    <g transform="translate(375.572685697 287.865051429)scale(0.12 -0.12)">
     <use transform="translate(0.0 0.109375)" xlink:href="#Cmmi10-52"/>
     <use transform="translate(87.2484375 38.3734375)scale(0.7)" xlink:href="#Cmr10-32"/>
     <use transform="translate(146.184375 0.109375)" xlink:href="#Cmr10-3d"/>
     <use transform="translate(241.428515625 0.109375)" xlink:href="#Cmr10-30"/>
     <use transform="translate(291.428515625 0.109375)" xlink:href="#Cmmi10-3a"/>
     <use transform="translate(336.67265625 0.109375)" xlink:href="#Cmr10-37"/>
     <use transform="translate(386.67265625 0.109375)" xlink:href="#Cmr10-30"/>
     <use transform="translate(436.67265625 0.109375)" xlink:href="#Cmr10-33"/>
     <use transform="translate(486.67265625 0.109375)" xlink:href="#Cmr10-34"/>
    </g>
   </g>
   <g id="text_19">
    <!-- a5_qq plot -->
    <defs>
     <path d="M 30.609375 48.390625 
Q 23.390625 48.390625 19.1875 42.75 
Q 14.984375 37.109375 14.984375 27.296875 
Q 14.984375 17.484375 19.15625 11.84375 
Q 23.34375 6.203125 30.609375 6.203125 
Q 37.796875 6.203125 41.984375 11.859375 
Q 46.1875 17.53125 46.1875 27.296875 
Q 46.1875 37.015625 41.984375 42.703125 
Q 37.796875 48.390625 30.609375 48.390625 
M 30.609375 56 
Q 42.328125 56 49.015625 48.375 
Q 55.71875 40.765625 55.71875 27.296875 
Q 55.71875 13.875 49.015625 6.21875 
Q 42.328125 -1.421875 30.609375 -1.421875 
Q 18.84375 -1.421875 12.171875 6.21875 
Q 5.515625 13.875 5.515625 27.296875 
Q 5.515625 40.765625 12.171875 48.375 
Q 18.84375 56 30.609375 56 
" id="BitstreamVeraSans-Roman-6f"/>
     <path d="M 18.109375 8.203125 
L 18.109375 -20.796875 
L 9.078125 -20.796875 
L 9.078125 54.6875 
L 18.109375 54.6875 
L 18.109375 46.390625 
Q 20.953125 51.265625 25.265625 53.625 
Q 29.59375 56 35.59375 56 
Q 45.5625 56 51.78125 48.09375 
Q 58.015625 40.1875 58.015625 27.296875 
Q 58.015625 14.40625 51.78125 6.484375 
Q 45.5625 -1.421875 35.59375 -1.421875 
Q 29.59375 -1.421875 25.265625 0.953125 
Q 20.953125 3.328125 18.109375 8.203125 
M 48.6875 27.296875 
Q 48.6875 37.203125 44.609375 42.84375 
Q 40.53125 48.484375 33.40625 48.484375 
Q 26.265625 48.484375 22.1875 42.84375 
Q 18.109375 37.203125 18.109375 27.296875 
Q 18.109375 17.390625 22.1875 11.75 
Q 26.265625 6.109375 33.40625 6.109375 
Q 40.53125 6.109375 44.609375 11.75 
Q 48.6875 17.390625 48.6875 27.296875 
" id="BitstreamVeraSans-Roman-70"/>
     <path d="M 50.984375 -16.609375 
L 50.984375 -23.578125 
L -0.984375 -23.578125 
L -0.984375 -16.609375 
z
" id="BitstreamVeraSans-Roman-5f"/>
     <path d="M 14.796875 27.296875 
Q 14.796875 17.390625 18.875 11.75 
Q 22.953125 6.109375 30.078125 6.109375 
Q 37.203125 6.109375 41.296875 11.75 
Q 45.40625 17.390625 45.40625 27.296875 
Q 45.40625 37.203125 41.296875 42.84375 
Q 37.203125 48.484375 30.078125 48.484375 
Q 22.953125 48.484375 18.875 42.84375 
Q 14.796875 37.203125 14.796875 27.296875 
M 45.40625 8.203125 
Q 42.578125 3.328125 38.25 0.953125 
Q 33.9375 -1.421875 27.875 -1.421875 
Q 17.96875 -1.421875 11.734375 6.484375 
Q 5.515625 14.40625 5.515625 27.296875 
Q 5.515625 40.1875 11.734375 48.09375 
Q 17.96875 56 27.875 56 
Q 33.9375 56 38.25 53.625 
Q 42.578125 51.265625 45.40625 46.390625 
L 45.40625 54.6875 
L 54.390625 54.6875 
L 54.390625 -20.796875 
L 45.40625 -20.796875 
z
" id="BitstreamVeraSans-Roman-71"/>
    </defs>
    <g transform="translate(257.3775 38.2)scale(0.144 -0.144)">
     <use xlink:href="#BitstreamVeraSans-Roman-61"/>
     <use x="61.279296875" xlink:href="#BitstreamVeraSans-Roman-35"/>
     <use x="124.90234375" xlink:href="#BitstreamVeraSans-Roman-5f"/>
     <use x="174.90234375" xlink:href="#BitstreamVeraSans-Roman-71"/>
     <use x="238.37890625" xlink:href="#BitstreamVeraSans-Roman-71"/>
     <use x="301.85546875" xlink:href="#BitstreamVeraSans-Roman-20"/>
     <use x="333.642578125" xlink:href="#BitstreamVeraSans-Roman-70"/>
     <use x="397.119140625" xlink:href="#BitstreamVeraSans-Roman-6c"/>
     <use x="424.90234375" xlink:href="#BitstreamVeraSans-Roman-6f"/>
     <use x="486.083984375" xlink:href="#BitstreamVeraSans-Roman-74"/>
    </g>
   </g>
  </g>
 </g>
 <defs>
  <clipPath id="pd7d4d207bf">
   <rect height="345.6" width="446.4" x="72.0" y="43.2"/>
  </clipPath>
 </defs>
</svg>
