<?xml version="1.0" encoding="utf-8" standalone="no"?>
<!DOCTYPE svg PUBLIC "-//W3C//DTD SVG 1.1//EN"
  "http://www.w3.org/Graphics/SVG/1.1/DTD/svg11.dtd">
<!-- Created with matplotlib (http://matplotlib.org/) -->
<svg height="432pt" version="1.1" viewBox="0 0 576 432" width="576pt" xmlns="http://www.w3.org/2000/svg" xmlns:xlink="http://www.w3.org/1999/xlink">
 <defs>
  <style type="text/css">
*{stroke-linecap:butt;stroke-linejoin:round;stroke-miterlimit:100000;}
  </style>
 </defs>
 <g id="figure_1">
  <g id="patch_1">
   <path d="M 0 432 
L 576 432 
L 576 0 
L 0 0 
z
" style="fill:#ffffff;"/>
  </g>
  <g id="axes_1">
   <g id="patch_2">
    <path d="M 72 388.8 
L 518.4 388.8 
L 518.4 43.2 
L 72 43.2 
z
" style="fill:#ffffff;"/>
   </g>
   <g id="line2d_1">
    <defs>
     <path d="M 0 3 
C 0.795609 3 1.55874 2.683901 2.12132 2.12132 
C 2.683901 1.55874 3 0.795609 3 0 
C 3 -0.795609 2.683901 -1.55874 2.12132 -2.12132 
C 1.55874 -2.683901 0.795609 -3 0 -3 
C -0.795609 -3 -1.55874 -2.683901 -2.12132 -2.12132 
C -2.683901 -1.55874 -3 -0.795609 -3 0 
C -3 0.795609 -2.683901 1.55874 -2.12132 2.12132 
C -1.55874 2.683901 -0.795609 3 0 3 
z
" id="me73d5d0d6b" style="stroke:#000000;stroke-width:0.5;"/>
    </defs>
    <g clip-path="url(#p0664350155)">
     <use style="fill:#0000ff;stroke:#000000;stroke-width:0.5;" x="94.5166964026" xlink:href="#me73d5d0d6b" y="356.4"/>
     <use style="fill:#0000ff;stroke:#000000;stroke-width:0.5;" x="117.57044384" xlink:href="#me73d5d0d6b" y="349.92"/>
     <use style="fill:#0000ff;stroke:#000000;stroke-width:0.5;" x="130.712626611" xlink:href="#me73d5d0d6b" y="319.68"/>
     <use style="fill:#0000ff;stroke:#000000;stroke-width:0.5;" x="140.124510065" xlink:href="#me73d5d0d6b" y="319.68"/>
     <use style="fill:#0000ff;stroke:#000000;stroke-width:0.5;" x="147.560428587" xlink:href="#me73d5d0d6b" y="317.52"/>
     <use style="fill:#0000ff;stroke:#000000;stroke-width:0.5;" x="153.760692447" xlink:href="#me73d5d0d6b" y="315.36"/>
     <use style="fill:#0000ff;stroke:#000000;stroke-width:0.5;" x="159.110572706" xlink:href="#me73d5d0d6b" y="311.04"/>
     <use style="fill:#0000ff;stroke:#000000;stroke-width:0.5;" x="163.83725094" xlink:href="#me73d5d0d6b" y="311.04"/>
     <use style="fill:#0000ff;stroke:#000000;stroke-width:0.5;" x="168.086411459" xlink:href="#me73d5d0d6b" y="295.92"/>
     <use style="fill:#0000ff;stroke:#000000;stroke-width:0.5;" x="171.957305808" xlink:href="#me73d5d0d6b" y="293.76"/>
     <use style="fill:#0000ff;stroke:#000000;stroke-width:0.5;" x="175.520723824" xlink:href="#me73d5d0d6b" y="291.6"/>
     <use style="fill:#0000ff;stroke:#000000;stroke-width:0.5;" x="178.829005023" xlink:href="#me73d5d0d6b" y="291.6"/>
     <use style="fill:#0000ff;stroke:#000000;stroke-width:0.5;" x="181.921986658" xlink:href="#me73d5d0d6b" y="285.12"/>
     <use style="fill:#0000ff;stroke:#000000;stroke-width:0.5;" x="184.830723808" xlink:href="#me73d5d0d6b" y="282.96"/>
     <use style="fill:#0000ff;stroke:#000000;stroke-width:0.5;" x="187.579915722" xlink:href="#me73d5d0d6b" y="282.96"/>
     <use style="fill:#0000ff;stroke:#000000;stroke-width:0.5;" x="190.189544665" xlink:href="#me73d5d0d6b" y="274.32"/>
     <use style="fill:#0000ff;stroke:#000000;stroke-width:0.5;" x="192.676016141" xlink:href="#me73d5d0d6b" y="274.32"/>
     <use style="fill:#0000ff;stroke:#000000;stroke-width:0.5;" x="195.052972605" xlink:href="#me73d5d0d6b" y="272.16"/>
     <use style="fill:#0000ff;stroke:#000000;stroke-width:0.5;" x="197.331887128" xlink:href="#me73d5d0d6b" y="270.0"/>
     <use style="fill:#0000ff;stroke:#000000;stroke-width:0.5;" x="199.522504961" xlink:href="#me73d5d0d6b" y="265.68"/>
     <use style="fill:#0000ff;stroke:#000000;stroke-width:0.5;" x="201.633177641" xlink:href="#me73d5d0d6b" y="263.52"/>
     <use style="fill:#0000ff;stroke:#000000;stroke-width:0.5;" x="203.671119651" xlink:href="#me73d5d0d6b" y="261.36"/>
     <use style="fill:#0000ff;stroke:#000000;stroke-width:0.5;" x="205.642608299" xlink:href="#me73d5d0d6b" y="259.2"/>
     <use style="fill:#0000ff;stroke:#000000;stroke-width:0.5;" x="207.553141297" xlink:href="#me73d5d0d6b" y="259.2"/>
     <use style="fill:#0000ff;stroke:#000000;stroke-width:0.5;" x="209.407562387" xlink:href="#me73d5d0d6b" y="259.2"/>
     <use style="fill:#0000ff;stroke:#000000;stroke-width:0.5;" x="211.210162508" xlink:href="#me73d5d0d6b" y="259.2"/>
     <use style="fill:#0000ff;stroke:#000000;stroke-width:0.5;" x="212.964762029" xlink:href="#me73d5d0d6b" y="257.04"/>
     <use style="fill:#0000ff;stroke:#000000;stroke-width:0.5;" x="214.674778157" xlink:href="#me73d5d0d6b" y="254.88"/>
     <use style="fill:#0000ff;stroke:#000000;stroke-width:0.5;" x="216.343280632" xlink:href="#me73d5d0d6b" y="254.88"/>
     <use style="fill:#0000ff;stroke:#000000;stroke-width:0.5;" x="217.97303808" xlink:href="#me73d5d0d6b" y="254.88"/>
     <use style="fill:#0000ff;stroke:#000000;stroke-width:0.5;" x="219.566556838" xlink:href="#me73d5d0d6b" y="252.72"/>
     <use style="fill:#0000ff;stroke:#000000;stroke-width:0.5;" x="221.1261137" xlink:href="#me73d5d0d6b" y="252.72"/>
     <use style="fill:#0000ff;stroke:#000000;stroke-width:0.5;" x="222.653783671" xlink:href="#me73d5d0d6b" y="251.64"/>
     <use style="fill:#0000ff;stroke:#000000;stroke-width:0.5;" x="224.151463634" xlink:href="#me73d5d0d6b" y="248.4"/>
     <use style="fill:#0000ff;stroke:#000000;stroke-width:0.5;" x="225.620892639" xlink:href="#me73d5d0d6b" y="248.4"/>
     <use style="fill:#0000ff;stroke:#000000;stroke-width:0.5;" x="227.063669361" xlink:href="#me73d5d0d6b" y="246.24"/>
     <use style="fill:#0000ff;stroke:#000000;stroke-width:0.5;" x="228.481267205" xlink:href="#me73d5d0d6b" y="244.08"/>
     <use style="fill:#0000ff;stroke:#000000;stroke-width:0.5;" x="229.875047426" xlink:href="#me73d5d0d6b" y="241.92"/>
     <use style="fill:#0000ff;stroke:#000000;stroke-width:0.5;" x="231.246270572" xlink:href="#me73d5d0d6b" y="239.76"/>
     <use style="fill:#0000ff;stroke:#000000;stroke-width:0.5;" x="232.596106496" xlink:href="#me73d5d0d6b" y="237.6"/>
     <use style="fill:#0000ff;stroke:#000000;stroke-width:0.5;" x="233.925643157" xlink:href="#me73d5d0d6b" y="235.44"/>
     <use style="fill:#0000ff;stroke:#000000;stroke-width:0.5;" x="235.235894372" xlink:href="#me73d5d0d6b" y="235.44"/>
     <use style="fill:#0000ff;stroke:#000000;stroke-width:0.5;" x="236.527806679" xlink:href="#me73d5d0d6b" y="235.44"/>
     <use style="fill:#0000ff;stroke:#000000;stroke-width:0.5;" x="237.802265416" xlink:href="#me73d5d0d6b" y="235.44"/>
     <use style="fill:#0000ff;stroke:#000000;stroke-width:0.5;" x="239.060100138" xlink:href="#me73d5d0d6b" y="231.12"/>
     <use style="fill:#0000ff;stroke:#000000;stroke-width:0.5;" x="240.302089444" xlink:href="#me73d5d0d6b" y="228.96"/>
     <use style="fill:#0000ff;stroke:#000000;stroke-width:0.5;" x="241.528965296" xlink:href="#me73d5d0d6b" y="224.64"/>
     <use style="fill:#0000ff;stroke:#000000;stroke-width:0.5;" x="242.741416893" xlink:href="#me73d5d0d6b" y="224.64"/>
     <use style="fill:#0000ff;stroke:#000000;stroke-width:0.5;" x="243.940094157" xlink:href="#me73d5d0d6b" y="222.48"/>
     <use style="fill:#0000ff;stroke:#000000;stroke-width:0.5;" x="245.125610868" xlink:href="#me73d5d0d6b" y="222.48"/>
     <use style="fill:#0000ff;stroke:#000000;stroke-width:0.5;" x="246.298547497" xlink:href="#me73d5d0d6b" y="220.32"/>
     <use style="fill:#0000ff;stroke:#000000;stroke-width:0.5;" x="247.45945378" xlink:href="#me73d5d0d6b" y="218.16"/>
     <use style="fill:#0000ff;stroke:#000000;stroke-width:0.5;" x="248.608851037" xlink:href="#me73d5d0d6b" y="218.16"/>
     <use style="fill:#0000ff;stroke:#000000;stroke-width:0.5;" x="249.747234289" xlink:href="#me73d5d0d6b" y="216.0"/>
     <use style="fill:#0000ff;stroke:#000000;stroke-width:0.5;" x="250.87507419" xlink:href="#me73d5d0d6b" y="213.84"/>
     <use style="fill:#0000ff;stroke:#000000;stroke-width:0.5;" x="251.992818776" xlink:href="#me73d5d0d6b" y="213.84"/>
     <use style="fill:#0000ff;stroke:#000000;stroke-width:0.5;" x="253.10089508" xlink:href="#me73d5d0d6b" y="213.84"/>
     <use style="fill:#0000ff;stroke:#000000;stroke-width:0.5;" x="254.199710597" xlink:href="#me73d5d0d6b" y="211.68"/>
     <use style="fill:#0000ff;stroke:#000000;stroke-width:0.5;" x="255.289654638" xlink:href="#me73d5d0d6b" y="211.68"/>
     <use style="fill:#0000ff;stroke:#000000;stroke-width:0.5;" x="256.371099567" xlink:href="#me73d5d0d6b" y="211.68"/>
     <use style="fill:#0000ff;stroke:#000000;stroke-width:0.5;" x="257.444401943" xlink:href="#me73d5d0d6b" y="209.52"/>
     <use style="fill:#0000ff;stroke:#000000;stroke-width:0.5;" x="258.509903575" xlink:href="#me73d5d0d6b" y="209.52"/>
     <use style="fill:#0000ff;stroke:#000000;stroke-width:0.5;" x="259.56793249" xlink:href="#me73d5d0d6b" y="207.36"/>
     <use style="fill:#0000ff;stroke:#000000;stroke-width:0.5;" x="260.618803833" xlink:href="#me73d5d0d6b" y="207.36"/>
     <use style="fill:#0000ff;stroke:#000000;stroke-width:0.5;" x="261.6628207" xlink:href="#me73d5d0d6b" y="207.36"/>
     <use style="fill:#0000ff;stroke:#000000;stroke-width:0.5;" x="262.700274908" xlink:href="#me73d5d0d6b" y="205.2"/>
     <use style="fill:#0000ff;stroke:#000000;stroke-width:0.5;" x="263.731447715" xlink:href="#me73d5d0d6b" y="205.2"/>
     <use style="fill:#0000ff;stroke:#000000;stroke-width:0.5;" x="264.756610486" xlink:href="#me73d5d0d6b" y="203.04"/>
     <use style="fill:#0000ff;stroke:#000000;stroke-width:0.5;" x="265.776025312" xlink:href="#me73d5d0d6b" y="200.88"/>
     <use style="fill:#0000ff;stroke:#000000;stroke-width:0.5;" x="266.789945595" xlink:href="#me73d5d0d6b" y="198.72"/>
     <use style="fill:#0000ff;stroke:#000000;stroke-width:0.5;" x="267.798616589" xlink:href="#me73d5d0d6b" y="198.72"/>
     <use style="fill:#0000ff;stroke:#000000;stroke-width:0.5;" x="268.802275903" xlink:href="#me73d5d0d6b" y="198.72"/>
     <use style="fill:#0000ff;stroke:#000000;stroke-width:0.5;" x="269.801153985" xlink:href="#me73d5d0d6b" y="196.56"/>
     <use style="fill:#0000ff;stroke:#000000;stroke-width:0.5;" x="270.79547456" xlink:href="#me73d5d0d6b" y="196.56"/>
     <use style="fill:#0000ff;stroke:#000000;stroke-width:0.5;" x="271.785455057" xlink:href="#me73d5d0d6b" y="194.4"/>
     <use style="fill:#0000ff;stroke:#000000;stroke-width:0.5;" x="272.771307001" xlink:href="#me73d5d0d6b" y="194.4"/>
     <use style="fill:#0000ff;stroke:#000000;stroke-width:0.5;" x="273.753236384" xlink:href="#me73d5d0d6b" y="194.4"/>
     <use style="fill:#0000ff;stroke:#000000;stroke-width:0.5;" x="274.731444022" xlink:href="#me73d5d0d6b" y="194.4"/>
     <use style="fill:#0000ff;stroke:#000000;stroke-width:0.5;" x="275.706125887" xlink:href="#me73d5d0d6b" y="190.08"/>
     <use style="fill:#0000ff;stroke:#000000;stroke-width:0.5;" x="276.67747342" xlink:href="#me73d5d0d6b" y="190.08"/>
     <use style="fill:#0000ff;stroke:#000000;stroke-width:0.5;" x="277.645673835" xlink:href="#me73d5d0d6b" y="190.08"/>
     <use style="fill:#0000ff;stroke:#000000;stroke-width:0.5;" x="278.610910401" xlink:href="#me73d5d0d6b" y="187.92"/>
     <use style="fill:#0000ff;stroke:#000000;stroke-width:0.5;" x="279.573362717" xlink:href="#me73d5d0d6b" y="185.76"/>
     <use style="fill:#0000ff;stroke:#000000;stroke-width:0.5;" x="280.533206971" xlink:href="#me73d5d0d6b" y="185.76"/>
     <use style="fill:#0000ff;stroke:#000000;stroke-width:0.5;" x="281.490616185" xlink:href="#me73d5d0d6b" y="185.76"/>
     <use style="fill:#0000ff;stroke:#000000;stroke-width:0.5;" x="282.44576046" xlink:href="#me73d5d0d6b" y="185.76"/>
     <use style="fill:#0000ff;stroke:#000000;stroke-width:0.5;" x="283.398807195" xlink:href="#me73d5d0d6b" y="183.6"/>
     <use style="fill:#0000ff;stroke:#000000;stroke-width:0.5;" x="284.349921319" xlink:href="#me73d5d0d6b" y="183.6"/>
     <use style="fill:#0000ff;stroke:#000000;stroke-width:0.5;" x="285.299265491" xlink:href="#me73d5d0d6b" y="183.6"/>
     <use style="fill:#0000ff;stroke:#000000;stroke-width:0.5;" x="286.247000316" xlink:href="#me73d5d0d6b" y="181.44"/>
     <use style="fill:#0000ff;stroke:#000000;stroke-width:0.5;" x="287.193284538" xlink:href="#me73d5d0d6b" y="181.44"/>
     <use style="fill:#0000ff;stroke:#000000;stroke-width:0.5;" x="288.138275233" xlink:href="#me73d5d0d6b" y="181.44"/>
     <use style="fill:#0000ff;stroke:#000000;stroke-width:0.5;" x="289.082128001" xlink:href="#me73d5d0d6b" y="179.28"/>
     <use style="fill:#0000ff;stroke:#000000;stroke-width:0.5;" x="290.024997149" xlink:href="#me73d5d0d6b" y="179.28"/>
     <use style="fill:#0000ff;stroke:#000000;stroke-width:0.5;" x="290.967035868" xlink:href="#me73d5d0d6b" y="179.28"/>
     <use style="fill:#0000ff;stroke:#000000;stroke-width:0.5;" x="291.908396413" xlink:href="#me73d5d0d6b" y="177.12"/>
     <use style="fill:#0000ff;stroke:#000000;stroke-width:0.5;" x="292.849230277" xlink:href="#me73d5d0d6b" y="177.12"/>
     <use style="fill:#0000ff;stroke:#000000;stroke-width:0.5;" x="293.789688361" xlink:href="#me73d5d0d6b" y="177.12"/>
     <use style="fill:#0000ff;stroke:#000000;stroke-width:0.5;" x="294.729921144" xlink:href="#me73d5d0d6b" y="177.12"/>
     <use style="fill:#0000ff;stroke:#000000;stroke-width:0.5;" x="295.670078856" xlink:href="#me73d5d0d6b" y="177.12"/>
     <use style="fill:#0000ff;stroke:#000000;stroke-width:0.5;" x="296.610311639" xlink:href="#me73d5d0d6b" y="177.12"/>
     <use style="fill:#0000ff;stroke:#000000;stroke-width:0.5;" x="297.550769723" xlink:href="#me73d5d0d6b" y="177.12"/>
     <use style="fill:#0000ff;stroke:#000000;stroke-width:0.5;" x="298.491603587" xlink:href="#me73d5d0d6b" y="177.12"/>
     <use style="fill:#0000ff;stroke:#000000;stroke-width:0.5;" x="299.432964132" xlink:href="#me73d5d0d6b" y="174.96"/>
     <use style="fill:#0000ff;stroke:#000000;stroke-width:0.5;" x="300.375002851" xlink:href="#me73d5d0d6b" y="174.96"/>
     <use style="fill:#0000ff;stroke:#000000;stroke-width:0.5;" x="301.317871999" xlink:href="#me73d5d0d6b" y="174.96"/>
     <use style="fill:#0000ff;stroke:#000000;stroke-width:0.5;" x="302.261724767" xlink:href="#me73d5d0d6b" y="174.96"/>
     <use style="fill:#0000ff;stroke:#000000;stroke-width:0.5;" x="303.206715462" xlink:href="#me73d5d0d6b" y="174.96"/>
     <use style="fill:#0000ff;stroke:#000000;stroke-width:0.5;" x="304.152999684" xlink:href="#me73d5d0d6b" y="172.8"/>
     <use style="fill:#0000ff;stroke:#000000;stroke-width:0.5;" x="305.100734509" xlink:href="#me73d5d0d6b" y="172.8"/>
     <use style="fill:#0000ff;stroke:#000000;stroke-width:0.5;" x="306.050078681" xlink:href="#me73d5d0d6b" y="172.8"/>
     <use style="fill:#0000ff;stroke:#000000;stroke-width:0.5;" x="307.001192805" xlink:href="#me73d5d0d6b" y="170.64"/>
     <use style="fill:#0000ff;stroke:#000000;stroke-width:0.5;" x="307.95423954" xlink:href="#me73d5d0d6b" y="170.64"/>
     <use style="fill:#0000ff;stroke:#000000;stroke-width:0.5;" x="308.909383815" xlink:href="#me73d5d0d6b" y="170.64"/>
     <use style="fill:#0000ff;stroke:#000000;stroke-width:0.5;" x="309.866793029" xlink:href="#me73d5d0d6b" y="168.48"/>
     <use style="fill:#0000ff;stroke:#000000;stroke-width:0.5;" x="310.826637283" xlink:href="#me73d5d0d6b" y="168.48"/>
     <use style="fill:#0000ff;stroke:#000000;stroke-width:0.5;" x="311.789089599" xlink:href="#me73d5d0d6b" y="168.48"/>
     <use style="fill:#0000ff;stroke:#000000;stroke-width:0.5;" x="312.754326165" xlink:href="#me73d5d0d6b" y="168.48"/>
     <use style="fill:#0000ff;stroke:#000000;stroke-width:0.5;" x="313.72252658" xlink:href="#me73d5d0d6b" y="166.536"/>
     <use style="fill:#0000ff;stroke:#000000;stroke-width:0.5;" x="314.693874113" xlink:href="#me73d5d0d6b" y="166.32"/>
     <use style="fill:#0000ff;stroke:#000000;stroke-width:0.5;" x="315.668555978" xlink:href="#me73d5d0d6b" y="166.32"/>
     <use style="fill:#0000ff;stroke:#000000;stroke-width:0.5;" x="316.646763616" xlink:href="#me73d5d0d6b" y="166.32"/>
     <use style="fill:#0000ff;stroke:#000000;stroke-width:0.5;" x="317.628692999" xlink:href="#me73d5d0d6b" y="164.16"/>
     <use style="fill:#0000ff;stroke:#000000;stroke-width:0.5;" x="318.614544943" xlink:href="#me73d5d0d6b" y="164.16"/>
     <use style="fill:#0000ff;stroke:#000000;stroke-width:0.5;" x="319.60452544" xlink:href="#me73d5d0d6b" y="162.0"/>
     <use style="fill:#0000ff;stroke:#000000;stroke-width:0.5;" x="320.598846015" xlink:href="#me73d5d0d6b" y="162.0"/>
     <use style="fill:#0000ff;stroke:#000000;stroke-width:0.5;" x="321.597724097" xlink:href="#me73d5d0d6b" y="162.0"/>
     <use style="fill:#0000ff;stroke:#000000;stroke-width:0.5;" x="322.601383411" xlink:href="#me73d5d0d6b" y="162.0"/>
     <use style="fill:#0000ff;stroke:#000000;stroke-width:0.5;" x="323.610054405" xlink:href="#me73d5d0d6b" y="162.0"/>
     <use style="fill:#0000ff;stroke:#000000;stroke-width:0.5;" x="324.623974688" xlink:href="#me73d5d0d6b" y="162.0"/>
     <use style="fill:#0000ff;stroke:#000000;stroke-width:0.5;" x="325.643389514" xlink:href="#me73d5d0d6b" y="162.0"/>
     <use style="fill:#0000ff;stroke:#000000;stroke-width:0.5;" x="326.668552285" xlink:href="#me73d5d0d6b" y="161.352"/>
     <use style="fill:#0000ff;stroke:#000000;stroke-width:0.5;" x="327.699725092" xlink:href="#me73d5d0d6b" y="159.84"/>
     <use style="fill:#0000ff;stroke:#000000;stroke-width:0.5;" x="328.7371793" xlink:href="#me73d5d0d6b" y="159.84"/>
     <use style="fill:#0000ff;stroke:#000000;stroke-width:0.5;" x="329.781196167" xlink:href="#me73d5d0d6b" y="159.84"/>
     <use style="fill:#0000ff;stroke:#000000;stroke-width:0.5;" x="330.83206751" xlink:href="#me73d5d0d6b" y="159.84"/>
     <use style="fill:#0000ff;stroke:#000000;stroke-width:0.5;" x="331.890096425" xlink:href="#me73d5d0d6b" y="158.112"/>
     <use style="fill:#0000ff;stroke:#000000;stroke-width:0.5;" x="332.955598057" xlink:href="#me73d5d0d6b" y="157.68"/>
     <use style="fill:#0000ff;stroke:#000000;stroke-width:0.5;" x="334.028900433" xlink:href="#me73d5d0d6b" y="157.68"/>
     <use style="fill:#0000ff;stroke:#000000;stroke-width:0.5;" x="335.110345362" xlink:href="#me73d5d0d6b" y="157.68"/>
     <use style="fill:#0000ff;stroke:#000000;stroke-width:0.5;" x="336.200289403" xlink:href="#me73d5d0d6b" y="157.68"/>
     <use style="fill:#0000ff;stroke:#000000;stroke-width:0.5;" x="337.29910492" xlink:href="#me73d5d0d6b" y="157.68"/>
     <use style="fill:#0000ff;stroke:#000000;stroke-width:0.5;" x="338.407181224" xlink:href="#me73d5d0d6b" y="157.68"/>
     <use style="fill:#0000ff;stroke:#000000;stroke-width:0.5;" x="339.52492581" xlink:href="#me73d5d0d6b" y="157.68"/>
     <use style="fill:#0000ff;stroke:#000000;stroke-width:0.5;" x="340.652765711" xlink:href="#me73d5d0d6b" y="156.168"/>
     <use style="fill:#0000ff;stroke:#000000;stroke-width:0.5;" x="341.791148963" xlink:href="#me73d5d0d6b" y="155.52"/>
     <use style="fill:#0000ff;stroke:#000000;stroke-width:0.5;" x="342.94054622" xlink:href="#me73d5d0d6b" y="155.52"/>
     <use style="fill:#0000ff;stroke:#000000;stroke-width:0.5;" x="344.101452503" xlink:href="#me73d5d0d6b" y="155.52"/>
     <use style="fill:#0000ff;stroke:#000000;stroke-width:0.5;" x="345.274389132" xlink:href="#me73d5d0d6b" y="155.52"/>
     <use style="fill:#0000ff;stroke:#000000;stroke-width:0.5;" x="346.459905843" xlink:href="#me73d5d0d6b" y="155.52"/>
     <use style="fill:#0000ff;stroke:#000000;stroke-width:0.5;" x="347.658583107" xlink:href="#me73d5d0d6b" y="155.52"/>
     <use style="fill:#0000ff;stroke:#000000;stroke-width:0.5;" x="348.871034704" xlink:href="#me73d5d0d6b" y="155.52"/>
     <use style="fill:#0000ff;stroke:#000000;stroke-width:0.5;" x="350.097910556" xlink:href="#me73d5d0d6b" y="153.36"/>
     <use style="fill:#0000ff;stroke:#000000;stroke-width:0.5;" x="351.339899862" xlink:href="#me73d5d0d6b" y="153.36"/>
     <use style="fill:#0000ff;stroke:#000000;stroke-width:0.5;" x="352.597734584" xlink:href="#me73d5d0d6b" y="151.2"/>
     <use style="fill:#0000ff;stroke:#000000;stroke-width:0.5;" x="353.872193321" xlink:href="#me73d5d0d6b" y="151.2"/>
     <use style="fill:#0000ff;stroke:#000000;stroke-width:0.5;" x="355.164105628" xlink:href="#me73d5d0d6b" y="151.2"/>
     <use style="fill:#0000ff;stroke:#000000;stroke-width:0.5;" x="356.474356843" xlink:href="#me73d5d0d6b" y="149.04"/>
     <use style="fill:#0000ff;stroke:#000000;stroke-width:0.5;" x="357.803893504" xlink:href="#me73d5d0d6b" y="149.04"/>
     <use style="fill:#0000ff;stroke:#000000;stroke-width:0.5;" x="359.153729428" xlink:href="#me73d5d0d6b" y="149.04"/>
     <use style="fill:#0000ff;stroke:#000000;stroke-width:0.5;" x="360.524952574" xlink:href="#me73d5d0d6b" y="149.04"/>
     <use style="fill:#0000ff;stroke:#000000;stroke-width:0.5;" x="361.918732795" xlink:href="#me73d5d0d6b" y="149.04"/>
     <use style="fill:#0000ff;stroke:#000000;stroke-width:0.5;" x="363.336330639" xlink:href="#me73d5d0d6b" y="149.04"/>
     <use style="fill:#0000ff;stroke:#000000;stroke-width:0.5;" x="364.779107361" xlink:href="#me73d5d0d6b" y="147.528"/>
     <use style="fill:#0000ff;stroke:#000000;stroke-width:0.5;" x="366.248536366" xlink:href="#me73d5d0d6b" y="146.88"/>
     <use style="fill:#0000ff;stroke:#000000;stroke-width:0.5;" x="367.746216329" xlink:href="#me73d5d0d6b" y="146.664"/>
     <use style="fill:#0000ff;stroke:#000000;stroke-width:0.5;" x="369.2738863" xlink:href="#me73d5d0d6b" y="144.72"/>
     <use style="fill:#0000ff;stroke:#000000;stroke-width:0.5;" x="370.833443162" xlink:href="#me73d5d0d6b" y="144.72"/>
     <use style="fill:#0000ff;stroke:#000000;stroke-width:0.5;" x="372.42696192" xlink:href="#me73d5d0d6b" y="144.72"/>
     <use style="fill:#0000ff;stroke:#000000;stroke-width:0.5;" x="374.056719368" xlink:href="#me73d5d0d6b" y="144.72"/>
     <use style="fill:#0000ff;stroke:#000000;stroke-width:0.5;" x="375.725221843" xlink:href="#me73d5d0d6b" y="142.56"/>
     <use style="fill:#0000ff;stroke:#000000;stroke-width:0.5;" x="377.435237971" xlink:href="#me73d5d0d6b" y="142.56"/>
     <use style="fill:#0000ff;stroke:#000000;stroke-width:0.5;" x="379.189837492" xlink:href="#me73d5d0d6b" y="140.4"/>
     <use style="fill:#0000ff;stroke:#000000;stroke-width:0.5;" x="380.992437613" xlink:href="#me73d5d0d6b" y="140.4"/>
     <use style="fill:#0000ff;stroke:#000000;stroke-width:0.5;" x="382.846858703" xlink:href="#me73d5d0d6b" y="138.24"/>
     <use style="fill:#0000ff;stroke:#000000;stroke-width:0.5;" x="384.757391701" xlink:href="#me73d5d0d6b" y="138.24"/>
     <use style="fill:#0000ff;stroke:#000000;stroke-width:0.5;" x="386.728880349" xlink:href="#me73d5d0d6b" y="137.808"/>
     <use style="fill:#0000ff;stroke:#000000;stroke-width:0.5;" x="388.766822359" xlink:href="#me73d5d0d6b" y="136.08"/>
     <use style="fill:#0000ff;stroke:#000000;stroke-width:0.5;" x="390.877495039" xlink:href="#me73d5d0d6b" y="136.08"/>
     <use style="fill:#0000ff;stroke:#000000;stroke-width:0.5;" x="393.068112872" xlink:href="#me73d5d0d6b" y="136.08"/>
     <use style="fill:#0000ff;stroke:#000000;stroke-width:0.5;" x="395.347027395" xlink:href="#me73d5d0d6b" y="136.08"/>
     <use style="fill:#0000ff;stroke:#000000;stroke-width:0.5;" x="397.723983859" xlink:href="#me73d5d0d6b" y="136.08"/>
     <use style="fill:#0000ff;stroke:#000000;stroke-width:0.5;" x="400.210455335" xlink:href="#me73d5d0d6b" y="136.08"/>
     <use style="fill:#0000ff;stroke:#000000;stroke-width:0.5;" x="402.820084278" xlink:href="#me73d5d0d6b" y="133.92"/>
     <use style="fill:#0000ff;stroke:#000000;stroke-width:0.5;" x="405.569276192" xlink:href="#me73d5d0d6b" y="133.92"/>
     <use style="fill:#0000ff;stroke:#000000;stroke-width:0.5;" x="408.478013342" xlink:href="#me73d5d0d6b" y="133.92"/>
     <use style="fill:#0000ff;stroke:#000000;stroke-width:0.5;" x="411.570994977" xlink:href="#me73d5d0d6b" y="133.92"/>
     <use style="fill:#0000ff;stroke:#000000;stroke-width:0.5;" x="414.879276176" xlink:href="#me73d5d0d6b" y="133.92"/>
     <use style="fill:#0000ff;stroke:#000000;stroke-width:0.5;" x="418.442694192" xlink:href="#me73d5d0d6b" y="131.76"/>
     <use style="fill:#0000ff;stroke:#000000;stroke-width:0.5;" x="422.313588541" xlink:href="#me73d5d0d6b" y="129.6"/>
     <use style="fill:#0000ff;stroke:#000000;stroke-width:0.5;" x="426.56274906" xlink:href="#me73d5d0d6b" y="127.44"/>
     <use style="fill:#0000ff;stroke:#000000;stroke-width:0.5;" x="431.289427294" xlink:href="#me73d5d0d6b" y="127.44"/>
     <use style="fill:#0000ff;stroke:#000000;stroke-width:0.5;" x="436.639307553" xlink:href="#me73d5d0d6b" y="118.8"/>
     <use style="fill:#0000ff;stroke:#000000;stroke-width:0.5;" x="442.839571413" xlink:href="#me73d5d0d6b" y="118.8"/>
     <use style="fill:#0000ff;stroke:#000000;stroke-width:0.5;" x="450.275489935" xlink:href="#me73d5d0d6b" y="116.64"/>
     <use style="fill:#0000ff;stroke:#000000;stroke-width:0.5;" x="459.687373389" xlink:href="#me73d5d0d6b" y="110.16"/>
     <use style="fill:#0000ff;stroke:#000000;stroke-width:0.5;" x="472.82955616" xlink:href="#me73d5d0d6b" y="105.84"/>
     <use style="fill:#0000ff;stroke:#000000;stroke-width:0.5;" x="495.883303597" xlink:href="#me73d5d0d6b" y="99.36"/>
    </g>
   </g>
   <g id="line2d_2">
    <path clip-path="url(#p0664350155)" d="M 94.516696 327.564198 
L 495.883304 56.147802 
L 495.883304 56.147802 
" style="fill:none;stroke:#ff0000;stroke-linecap:square;"/>
   </g>
   <g id="patch_3">
    <path d="M 72 43.2 
L 518.4 43.2 
" style="fill:none;stroke:#000000;stroke-linecap:square;stroke-linejoin:miter;"/>
   </g>
   <g id="patch_4">
    <path d="M 518.4 388.8 
L 518.4 43.2 
" style="fill:none;stroke:#000000;stroke-linecap:square;stroke-linejoin:miter;"/>
   </g>
   <g id="patch_5">
    <path d="M 72 388.8 
L 518.4 388.8 
" style="fill:none;stroke:#000000;stroke-linecap:square;stroke-linejoin:miter;"/>
   </g>
   <g id="patch_6">
    <path d="M 72 388.8 
L 72 43.2 
" style="fill:none;stroke:#000000;stroke-linecap:square;stroke-linejoin:miter;"/>
   </g>
   <g id="matplotlib.axis_1">
    <g id="xtick_1">
     <g id="line2d_3">
      <defs>
       <path d="M 0 0 
L 0 -4 
" id="me4a47af108" style="stroke:#000000;stroke-width:0.5;"/>
      </defs>
      <g>
       <use style="stroke:#000000;stroke-width:0.5;" x="72.0" xlink:href="#me4a47af108" y="388.8"/>
      </g>
     </g>
     <g id="line2d_4">
      <defs>
       <path d="M 0 0 
L 0 4 
" id="md585189736" style="stroke:#000000;stroke-width:0.5;"/>
      </defs>
      <g>
       <use style="stroke:#000000;stroke-width:0.5;" x="72.0" xlink:href="#md585189736" y="43.2"/>
      </g>
     </g>
     <g id="text_1">
      <!-- −3 -->
      <defs>
       <path d="M 10.59375 35.5 
L 73.1875 35.5 
L 73.1875 27.203125 
L 10.59375 27.203125 
z
" id="BitstreamVeraSans-Roman-2212"/>
       <path d="M 40.578125 39.3125 
Q 47.65625 37.796875 51.625 33 
Q 55.609375 28.21875 55.609375 21.1875 
Q 55.609375 10.40625 48.1875 4.484375 
Q 40.765625 -1.421875 27.09375 -1.421875 
Q 22.515625 -1.421875 17.65625 -0.515625 
Q 12.796875 0.390625 7.625 2.203125 
L 7.625 11.71875 
Q 11.71875 9.328125 16.59375 8.109375 
Q 21.484375 6.890625 26.8125 6.890625 
Q 36.078125 6.890625 40.9375 10.546875 
Q 45.796875 14.203125 45.796875 21.1875 
Q 45.796875 27.640625 41.28125 31.265625 
Q 36.765625 34.90625 28.71875 34.90625 
L 20.21875 34.90625 
L 20.21875 43.015625 
L 29.109375 43.015625 
Q 36.375 43.015625 40.234375 45.921875 
Q 44.09375 48.828125 44.09375 54.296875 
Q 44.09375 59.90625 40.109375 62.90625 
Q 36.140625 65.921875 28.71875 65.921875 
Q 24.65625 65.921875 20.015625 65.03125 
Q 15.375 64.15625 9.8125 62.3125 
L 9.8125 71.09375 
Q 15.4375 72.65625 20.34375 73.4375 
Q 25.25 74.21875 29.59375 74.21875 
Q 40.828125 74.21875 47.359375 69.109375 
Q 53.90625 64.015625 53.90625 55.328125 
Q 53.90625 49.265625 50.4375 45.09375 
Q 46.96875 40.921875 40.578125 39.3125 
" id="BitstreamVeraSans-Roman-33"/>
      </defs>
      <g transform="translate(63.1546875 401.918125)scale(0.12 -0.12)">
       <use xlink:href="#BitstreamVeraSans-Roman-2212"/>
       <use x="83.7890625" xlink:href="#BitstreamVeraSans-Roman-33"/>
      </g>
     </g>
    </g>
    <g id="xtick_2">
     <g id="line2d_5">
      <g>
       <use style="stroke:#000000;stroke-width:0.5;" x="146.4" xlink:href="#me4a47af108" y="388.8"/>
      </g>
     </g>
     <g id="line2d_6">
      <g>
       <use style="stroke:#000000;stroke-width:0.5;" x="146.4" xlink:href="#md585189736" y="43.2"/>
      </g>
     </g>
     <g id="text_2">
      <!-- −2 -->
      <defs>
       <path d="M 19.1875 8.296875 
L 53.609375 8.296875 
L 53.609375 0 
L 7.328125 0 
L 7.328125 8.296875 
Q 12.9375 14.109375 22.625 23.890625 
Q 32.328125 33.6875 34.8125 36.53125 
Q 39.546875 41.84375 41.421875 45.53125 
Q 43.3125 49.21875 43.3125 52.78125 
Q 43.3125 58.59375 39.234375 62.25 
Q 35.15625 65.921875 28.609375 65.921875 
Q 23.96875 65.921875 18.8125 64.3125 
Q 13.671875 62.703125 7.8125 59.421875 
L 7.8125 69.390625 
Q 13.765625 71.78125 18.9375 73 
Q 24.125 74.21875 28.421875 74.21875 
Q 39.75 74.21875 46.484375 68.546875 
Q 53.21875 62.890625 53.21875 53.421875 
Q 53.21875 48.921875 51.53125 44.890625 
Q 49.859375 40.875 45.40625 35.40625 
Q 44.1875 33.984375 37.640625 27.21875 
Q 31.109375 20.453125 19.1875 8.296875 
" id="BitstreamVeraSans-Roman-32"/>
      </defs>
      <g transform="translate(137.5546875 401.918125)scale(0.12 -0.12)">
       <use xlink:href="#BitstreamVeraSans-Roman-2212"/>
       <use x="83.7890625" xlink:href="#BitstreamVeraSans-Roman-32"/>
      </g>
     </g>
    </g>
    <g id="xtick_3">
     <g id="line2d_7">
      <g>
       <use style="stroke:#000000;stroke-width:0.5;" x="220.8" xlink:href="#me4a47af108" y="388.8"/>
      </g>
     </g>
     <g id="line2d_8">
      <g>
       <use style="stroke:#000000;stroke-width:0.5;" x="220.8" xlink:href="#md585189736" y="43.2"/>
      </g>
     </g>
     <g id="text_3">
      <!-- −1 -->
      <defs>
       <path d="M 12.40625 8.296875 
L 28.515625 8.296875 
L 28.515625 63.921875 
L 10.984375 60.40625 
L 10.984375 69.390625 
L 28.421875 72.90625 
L 38.28125 72.90625 
L 38.28125 8.296875 
L 54.390625 8.296875 
L 54.390625 0 
L 12.40625 0 
z
" id="BitstreamVeraSans-Roman-31"/>
      </defs>
      <g transform="translate(211.9546875 401.918125)scale(0.12 -0.12)">
       <use xlink:href="#BitstreamVeraSans-Roman-2212"/>
       <use x="83.7890625" xlink:href="#BitstreamVeraSans-Roman-31"/>
      </g>
     </g>
    </g>
    <g id="xtick_4">
     <g id="line2d_9">
      <g>
       <use style="stroke:#000000;stroke-width:0.5;" x="295.2" xlink:href="#me4a47af108" y="388.8"/>
      </g>
     </g>
     <g id="line2d_10">
      <g>
       <use style="stroke:#000000;stroke-width:0.5;" x="295.2" xlink:href="#md585189736" y="43.2"/>
      </g>
     </g>
     <g id="text_4">
      <!-- 0 -->
      <defs>
       <path d="M 31.78125 66.40625 
Q 24.171875 66.40625 20.328125 58.90625 
Q 16.5 51.421875 16.5 36.375 
Q 16.5 21.390625 20.328125 13.890625 
Q 24.171875 6.390625 31.78125 6.390625 
Q 39.453125 6.390625 43.28125 13.890625 
Q 47.125 21.390625 47.125 36.375 
Q 47.125 51.421875 43.28125 58.90625 
Q 39.453125 66.40625 31.78125 66.40625 
M 31.78125 74.21875 
Q 44.046875 74.21875 50.515625 64.515625 
Q 56.984375 54.828125 56.984375 36.375 
Q 56.984375 17.96875 50.515625 8.265625 
Q 44.046875 -1.421875 31.78125 -1.421875 
Q 19.53125 -1.421875 13.0625 8.265625 
Q 6.59375 17.96875 6.59375 36.375 
Q 6.59375 54.828125 13.0625 64.515625 
Q 19.53125 74.21875 31.78125 74.21875 
" id="BitstreamVeraSans-Roman-30"/>
      </defs>
      <g transform="translate(291.3825 401.918125)scale(0.12 -0.12)">
       <use xlink:href="#BitstreamVeraSans-Roman-30"/>
      </g>
     </g>
    </g>
    <g id="xtick_5">
     <g id="line2d_11">
      <g>
       <use style="stroke:#000000;stroke-width:0.5;" x="369.6" xlink:href="#me4a47af108" y="388.8"/>
      </g>
     </g>
     <g id="line2d_12">
      <g>
       <use style="stroke:#000000;stroke-width:0.5;" x="369.6" xlink:href="#md585189736" y="43.2"/>
      </g>
     </g>
     <g id="text_5">
      <!-- 1 -->
      <g transform="translate(365.7825 401.918125)scale(0.12 -0.12)">
       <use xlink:href="#BitstreamVeraSans-Roman-31"/>
      </g>
     </g>
    </g>
    <g id="xtick_6">
     <g id="line2d_13">
      <g>
       <use style="stroke:#000000;stroke-width:0.5;" x="444.0" xlink:href="#me4a47af108" y="388.8"/>
      </g>
     </g>
     <g id="line2d_14">
      <g>
       <use style="stroke:#000000;stroke-width:0.5;" x="444.0" xlink:href="#md585189736" y="43.2"/>
      </g>
     </g>
     <g id="text_6">
      <!-- 2 -->
      <g transform="translate(440.1825 401.918125)scale(0.12 -0.12)">
       <use xlink:href="#BitstreamVeraSans-Roman-32"/>
      </g>
     </g>
    </g>
    <g id="xtick_7">
     <g id="line2d_15">
      <g>
       <use style="stroke:#000000;stroke-width:0.5;" x="518.4" xlink:href="#me4a47af108" y="388.8"/>
      </g>
     </g>
     <g id="line2d_16">
      <g>
       <use style="stroke:#000000;stroke-width:0.5;" x="518.4" xlink:href="#md585189736" y="43.2"/>
      </g>
     </g>
     <g id="text_7">
      <!-- 3 -->
      <g transform="translate(514.5825 401.918125)scale(0.12 -0.12)">
       <use xlink:href="#BitstreamVeraSans-Roman-33"/>
      </g>
     </g>
    </g>
    <g id="text_8">
     <!-- Quantiles -->
     <defs>
      <path d="M 54.890625 33.015625 
L 54.890625 0 
L 45.90625 0 
L 45.90625 32.71875 
Q 45.90625 40.484375 42.875 44.328125 
Q 39.84375 48.1875 33.796875 48.1875 
Q 26.515625 48.1875 22.3125 43.546875 
Q 18.109375 38.921875 18.109375 30.90625 
L 18.109375 0 
L 9.078125 0 
L 9.078125 54.6875 
L 18.109375 54.6875 
L 18.109375 46.1875 
Q 21.34375 51.125 25.703125 53.5625 
Q 30.078125 56 35.796875 56 
Q 45.21875 56 50.046875 50.171875 
Q 54.890625 44.34375 54.890625 33.015625 
" id="BitstreamVeraSans-Roman-6e"/>
      <path d="M 9.421875 75.984375 
L 18.40625 75.984375 
L 18.40625 0 
L 9.421875 0 
z
" id="BitstreamVeraSans-Roman-6c"/>
      <path d="M 39.40625 66.21875 
Q 28.65625 66.21875 22.328125 58.203125 
Q 16.015625 50.203125 16.015625 36.375 
Q 16.015625 22.609375 22.328125 14.59375 
Q 28.65625 6.59375 39.40625 6.59375 
Q 50.140625 6.59375 56.421875 14.59375 
Q 62.703125 22.609375 62.703125 36.375 
Q 62.703125 50.203125 56.421875 58.203125 
Q 50.140625 66.21875 39.40625 66.21875 
M 53.21875 1.3125 
L 66.21875 -12.890625 
L 54.296875 -12.890625 
L 43.5 -1.21875 
Q 41.890625 -1.3125 41.03125 -1.359375 
Q 40.1875 -1.421875 39.40625 -1.421875 
Q 24.03125 -1.421875 14.8125 8.859375 
Q 5.609375 19.140625 5.609375 36.375 
Q 5.609375 53.65625 14.8125 63.9375 
Q 24.03125 74.21875 39.40625 74.21875 
Q 54.734375 74.21875 63.90625 63.9375 
Q 73.09375 53.65625 73.09375 36.375 
Q 73.09375 23.6875 67.984375 14.640625 
Q 62.890625 5.609375 53.21875 1.3125 
" id="BitstreamVeraSans-Roman-51"/>
      <path d="M 9.421875 54.6875 
L 18.40625 54.6875 
L 18.40625 0 
L 9.421875 0 
z
M 9.421875 75.984375 
L 18.40625 75.984375 
L 18.40625 64.59375 
L 9.421875 64.59375 
z
" id="BitstreamVeraSans-Roman-69"/>
      <path d="M 56.203125 29.59375 
L 56.203125 25.203125 
L 14.890625 25.203125 
Q 15.484375 15.921875 20.484375 11.0625 
Q 25.484375 6.203125 34.421875 6.203125 
Q 39.59375 6.203125 44.453125 7.46875 
Q 49.3125 8.734375 54.109375 11.28125 
L 54.109375 2.78125 
Q 49.265625 0.734375 44.1875 -0.34375 
Q 39.109375 -1.421875 33.890625 -1.421875 
Q 20.796875 -1.421875 13.15625 6.1875 
Q 5.515625 13.8125 5.515625 26.8125 
Q 5.515625 40.234375 12.765625 48.109375 
Q 20.015625 56 32.328125 56 
Q 43.359375 56 49.78125 48.890625 
Q 56.203125 41.796875 56.203125 29.59375 
M 47.21875 32.234375 
Q 47.125 39.59375 43.09375 43.984375 
Q 39.0625 48.390625 32.421875 48.390625 
Q 24.90625 48.390625 20.390625 44.140625 
Q 15.875 39.890625 15.1875 32.171875 
z
" id="BitstreamVeraSans-Roman-65"/>
      <path d="M 18.3125 70.21875 
L 18.3125 54.6875 
L 36.8125 54.6875 
L 36.8125 47.703125 
L 18.3125 47.703125 
L 18.3125 18.015625 
Q 18.3125 11.328125 20.140625 9.421875 
Q 21.96875 7.515625 27.59375 7.515625 
L 36.8125 7.515625 
L 36.8125 0 
L 27.59375 0 
Q 17.1875 0 13.234375 3.875 
Q 9.28125 7.765625 9.28125 18.015625 
L 9.28125 47.703125 
L 2.6875 47.703125 
L 2.6875 54.6875 
L 9.28125 54.6875 
L 9.28125 70.21875 
z
" id="BitstreamVeraSans-Roman-74"/>
      <path d="M 8.5 21.578125 
L 8.5 54.6875 
L 17.484375 54.6875 
L 17.484375 21.921875 
Q 17.484375 14.15625 20.5 10.265625 
Q 23.53125 6.390625 29.59375 6.390625 
Q 36.859375 6.390625 41.078125 11.03125 
Q 45.3125 15.671875 45.3125 23.6875 
L 45.3125 54.6875 
L 54.296875 54.6875 
L 54.296875 0 
L 45.3125 0 
L 45.3125 8.40625 
Q 42.046875 3.421875 37.71875 1 
Q 33.40625 -1.421875 27.6875 -1.421875 
Q 18.265625 -1.421875 13.375 4.4375 
Q 8.5 10.296875 8.5 21.578125 
" id="BitstreamVeraSans-Roman-75"/>
      <path d="M 34.28125 27.484375 
Q 23.390625 27.484375 19.1875 25 
Q 14.984375 22.515625 14.984375 16.5 
Q 14.984375 11.71875 18.140625 8.90625 
Q 21.296875 6.109375 26.703125 6.109375 
Q 34.1875 6.109375 38.703125 11.40625 
Q 43.21875 16.703125 43.21875 25.484375 
L 43.21875 27.484375 
z
M 52.203125 31.203125 
L 52.203125 0 
L 43.21875 0 
L 43.21875 8.296875 
Q 40.140625 3.328125 35.546875 0.953125 
Q 30.953125 -1.421875 24.3125 -1.421875 
Q 15.921875 -1.421875 10.953125 3.296875 
Q 6 8.015625 6 15.921875 
Q 6 25.140625 12.171875 29.828125 
Q 18.359375 34.515625 30.609375 34.515625 
L 43.21875 34.515625 
L 43.21875 35.40625 
Q 43.21875 41.609375 39.140625 45 
Q 35.0625 48.390625 27.6875 48.390625 
Q 23 48.390625 18.546875 47.265625 
Q 14.109375 46.140625 10.015625 43.890625 
L 10.015625 52.203125 
Q 14.9375 54.109375 19.578125 55.046875 
Q 24.21875 56 28.609375 56 
Q 40.484375 56 46.34375 49.84375 
Q 52.203125 43.703125 52.203125 31.203125 
" id="BitstreamVeraSans-Roman-61"/>
      <path d="M 44.28125 53.078125 
L 44.28125 44.578125 
Q 40.484375 46.53125 36.375 47.5 
Q 32.28125 48.484375 27.875 48.484375 
Q 21.1875 48.484375 17.84375 46.4375 
Q 14.5 44.390625 14.5 40.28125 
Q 14.5 37.15625 16.890625 35.375 
Q 19.28125 33.59375 26.515625 31.984375 
L 29.59375 31.296875 
Q 39.15625 29.25 43.1875 25.515625 
Q 47.21875 21.78125 47.21875 15.09375 
Q 47.21875 7.46875 41.1875 3.015625 
Q 35.15625 -1.421875 24.609375 -1.421875 
Q 20.21875 -1.421875 15.453125 -0.5625 
Q 10.6875 0.296875 5.421875 2 
L 5.421875 11.28125 
Q 10.40625 8.6875 15.234375 7.390625 
Q 20.0625 6.109375 24.8125 6.109375 
Q 31.15625 6.109375 34.5625 8.28125 
Q 37.984375 10.453125 37.984375 14.40625 
Q 37.984375 18.0625 35.515625 20.015625 
Q 33.0625 21.96875 24.703125 23.78125 
L 21.578125 24.515625 
Q 13.234375 26.265625 9.515625 29.90625 
Q 5.8125 33.546875 5.8125 39.890625 
Q 5.8125 47.609375 11.28125 51.796875 
Q 16.75 56 26.8125 56 
Q 31.78125 56 36.171875 55.265625 
Q 40.578125 54.546875 44.28125 53.078125 
" id="BitstreamVeraSans-Roman-73"/>
     </defs>
     <g transform="translate(266.6915625 418.531875)scale(0.12 -0.12)">
      <use xlink:href="#BitstreamVeraSans-Roman-51"/>
      <use x="78.7109375" xlink:href="#BitstreamVeraSans-Roman-75"/>
      <use x="142.08984375" xlink:href="#BitstreamVeraSans-Roman-61"/>
      <use x="203.369140625" xlink:href="#BitstreamVeraSans-Roman-6e"/>
      <use x="266.748046875" xlink:href="#BitstreamVeraSans-Roman-74"/>
      <use x="305.95703125" xlink:href="#BitstreamVeraSans-Roman-69"/>
      <use x="333.740234375" xlink:href="#BitstreamVeraSans-Roman-6c"/>
      <use x="361.5234375" xlink:href="#BitstreamVeraSans-Roman-65"/>
      <use x="423.046875" xlink:href="#BitstreamVeraSans-Roman-73"/>
     </g>
    </g>
   </g>
   <g id="matplotlib.axis_2">
    <g id="ytick_1">
     <g id="line2d_17">
      <defs>
       <path d="M 0 0 
L 4 0 
" id="m347248b23c" style="stroke:#000000;stroke-width:0.5;"/>
      </defs>
      <g>
       <use style="stroke:#000000;stroke-width:0.5;" x="72.0" xlink:href="#m347248b23c" y="388.8"/>
      </g>
     </g>
     <g id="line2d_18">
      <defs>
       <path d="M 0 0 
L -4 0 
" id="maec99d8ef2" style="stroke:#000000;stroke-width:0.5;"/>
      </defs>
      <g>
       <use style="stroke:#000000;stroke-width:0.5;" x="518.4" xlink:href="#maec99d8ef2" y="388.8"/>
      </g>
     </g>
     <g id="text_9">
      <!-- 0 -->
      <g transform="translate(60.365 392.11125)scale(0.12 -0.12)">
       <use xlink:href="#BitstreamVeraSans-Roman-30"/>
      </g>
     </g>
    </g>
    <g id="ytick_2">
     <g id="line2d_19">
      <g>
       <use style="stroke:#000000;stroke-width:0.5;" x="72.0" xlink:href="#m347248b23c" y="345.6"/>
      </g>
     </g>
     <g id="line2d_20">
      <g>
       <use style="stroke:#000000;stroke-width:0.5;" x="518.4" xlink:href="#maec99d8ef2" y="345.6"/>
      </g>
     </g>
     <g id="text_10">
      <!-- 2 -->
      <g transform="translate(60.365 348.91125)scale(0.12 -0.12)">
       <use xlink:href="#BitstreamVeraSans-Roman-32"/>
      </g>
     </g>
    </g>
    <g id="ytick_3">
     <g id="line2d_21">
      <g>
       <use style="stroke:#000000;stroke-width:0.5;" x="72.0" xlink:href="#m347248b23c" y="302.4"/>
      </g>
     </g>
     <g id="line2d_22">
      <g>
       <use style="stroke:#000000;stroke-width:0.5;" x="518.4" xlink:href="#maec99d8ef2" y="302.4"/>
      </g>
     </g>
     <g id="text_11">
      <!-- 4 -->
      <defs>
       <path d="M 37.796875 64.3125 
L 12.890625 25.390625 
L 37.796875 25.390625 
z
M 35.203125 72.90625 
L 47.609375 72.90625 
L 47.609375 25.390625 
L 58.015625 25.390625 
L 58.015625 17.1875 
L 47.609375 17.1875 
L 47.609375 0 
L 37.796875 0 
L 37.796875 17.1875 
L 4.890625 17.1875 
L 4.890625 26.703125 
z
" id="BitstreamVeraSans-Roman-34"/>
      </defs>
      <g transform="translate(60.365 305.71125)scale(0.12 -0.12)">
       <use xlink:href="#BitstreamVeraSans-Roman-34"/>
      </g>
     </g>
    </g>
    <g id="ytick_4">
     <g id="line2d_23">
      <g>
       <use style="stroke:#000000;stroke-width:0.5;" x="72.0" xlink:href="#m347248b23c" y="259.2"/>
      </g>
     </g>
     <g id="line2d_24">
      <g>
       <use style="stroke:#000000;stroke-width:0.5;" x="518.4" xlink:href="#maec99d8ef2" y="259.2"/>
      </g>
     </g>
     <g id="text_12">
      <!-- 6 -->
      <defs>
       <path d="M 33.015625 40.375 
Q 26.375 40.375 22.484375 35.828125 
Q 18.609375 31.296875 18.609375 23.390625 
Q 18.609375 15.53125 22.484375 10.953125 
Q 26.375 6.390625 33.015625 6.390625 
Q 39.65625 6.390625 43.53125 10.953125 
Q 47.40625 15.53125 47.40625 23.390625 
Q 47.40625 31.296875 43.53125 35.828125 
Q 39.65625 40.375 33.015625 40.375 
M 52.59375 71.296875 
L 52.59375 62.3125 
Q 48.875 64.0625 45.09375 64.984375 
Q 41.3125 65.921875 37.59375 65.921875 
Q 27.828125 65.921875 22.671875 59.328125 
Q 17.53125 52.734375 16.796875 39.40625 
Q 19.671875 43.65625 24.015625 45.921875 
Q 28.375 48.1875 33.59375 48.1875 
Q 44.578125 48.1875 50.953125 41.515625 
Q 57.328125 34.859375 57.328125 23.390625 
Q 57.328125 12.15625 50.6875 5.359375 
Q 44.046875 -1.421875 33.015625 -1.421875 
Q 20.359375 -1.421875 13.671875 8.265625 
Q 6.984375 17.96875 6.984375 36.375 
Q 6.984375 53.65625 15.1875 63.9375 
Q 23.390625 74.21875 37.203125 74.21875 
Q 40.921875 74.21875 44.703125 73.484375 
Q 48.484375 72.75 52.59375 71.296875 
" id="BitstreamVeraSans-Roman-36"/>
      </defs>
      <g transform="translate(60.365 262.51125)scale(0.12 -0.12)">
       <use xlink:href="#BitstreamVeraSans-Roman-36"/>
      </g>
     </g>
    </g>
    <g id="ytick_5">
     <g id="line2d_25">
      <g>
       <use style="stroke:#000000;stroke-width:0.5;" x="72.0" xlink:href="#m347248b23c" y="216.0"/>
      </g>
     </g>
     <g id="line2d_26">
      <g>
       <use style="stroke:#000000;stroke-width:0.5;" x="518.4" xlink:href="#maec99d8ef2" y="216.0"/>
      </g>
     </g>
     <g id="text_13">
      <!-- 8 -->
      <defs>
       <path d="M 31.78125 34.625 
Q 24.75 34.625 20.71875 30.859375 
Q 16.703125 27.09375 16.703125 20.515625 
Q 16.703125 13.921875 20.71875 10.15625 
Q 24.75 6.390625 31.78125 6.390625 
Q 38.8125 6.390625 42.859375 10.171875 
Q 46.921875 13.96875 46.921875 20.515625 
Q 46.921875 27.09375 42.890625 30.859375 
Q 38.875 34.625 31.78125 34.625 
M 21.921875 38.8125 
Q 15.578125 40.375 12.03125 44.71875 
Q 8.5 49.078125 8.5 55.328125 
Q 8.5 64.0625 14.71875 69.140625 
Q 20.953125 74.21875 31.78125 74.21875 
Q 42.671875 74.21875 48.875 69.140625 
Q 55.078125 64.0625 55.078125 55.328125 
Q 55.078125 49.078125 51.53125 44.71875 
Q 48 40.375 41.703125 38.8125 
Q 48.828125 37.15625 52.796875 32.3125 
Q 56.78125 27.484375 56.78125 20.515625 
Q 56.78125 9.90625 50.3125 4.234375 
Q 43.84375 -1.421875 31.78125 -1.421875 
Q 19.734375 -1.421875 13.25 4.234375 
Q 6.78125 9.90625 6.78125 20.515625 
Q 6.78125 27.484375 10.78125 32.3125 
Q 14.796875 37.15625 21.921875 38.8125 
M 18.3125 54.390625 
Q 18.3125 48.734375 21.84375 45.5625 
Q 25.390625 42.390625 31.78125 42.390625 
Q 38.140625 42.390625 41.71875 45.5625 
Q 45.3125 48.734375 45.3125 54.390625 
Q 45.3125 60.0625 41.71875 63.234375 
Q 38.140625 66.40625 31.78125 66.40625 
Q 25.390625 66.40625 21.84375 63.234375 
Q 18.3125 60.0625 18.3125 54.390625 
" id="BitstreamVeraSans-Roman-38"/>
      </defs>
      <g transform="translate(60.365 219.31125)scale(0.12 -0.12)">
       <use xlink:href="#BitstreamVeraSans-Roman-38"/>
      </g>
     </g>
    </g>
    <g id="ytick_6">
     <g id="line2d_27">
      <g>
       <use style="stroke:#000000;stroke-width:0.5;" x="72.0" xlink:href="#m347248b23c" y="172.8"/>
      </g>
     </g>
     <g id="line2d_28">
      <g>
       <use style="stroke:#000000;stroke-width:0.5;" x="518.4" xlink:href="#maec99d8ef2" y="172.8"/>
      </g>
     </g>
     <g id="text_14">
      <!-- 10 -->
      <g transform="translate(52.73 176.11125)scale(0.12 -0.12)">
       <use xlink:href="#BitstreamVeraSans-Roman-31"/>
       <use x="63.623046875" xlink:href="#BitstreamVeraSans-Roman-30"/>
      </g>
     </g>
    </g>
    <g id="ytick_7">
     <g id="line2d_29">
      <g>
       <use style="stroke:#000000;stroke-width:0.5;" x="72.0" xlink:href="#m347248b23c" y="129.6"/>
      </g>
     </g>
     <g id="line2d_30">
      <g>
       <use style="stroke:#000000;stroke-width:0.5;" x="518.4" xlink:href="#maec99d8ef2" y="129.6"/>
      </g>
     </g>
     <g id="text_15">
      <!-- 12 -->
      <g transform="translate(52.73 132.91125)scale(0.12 -0.12)">
       <use xlink:href="#BitstreamVeraSans-Roman-31"/>
       <use x="63.623046875" xlink:href="#BitstreamVeraSans-Roman-32"/>
      </g>
     </g>
    </g>
    <g id="ytick_8">
     <g id="line2d_31">
      <g>
       <use style="stroke:#000000;stroke-width:0.5;" x="72.0" xlink:href="#m347248b23c" y="86.4"/>
      </g>
     </g>
     <g id="line2d_32">
      <g>
       <use style="stroke:#000000;stroke-width:0.5;" x="518.4" xlink:href="#maec99d8ef2" y="86.4"/>
      </g>
     </g>
     <g id="text_16">
      <!-- 14 -->
      <g transform="translate(52.73 89.71125)scale(0.12 -0.12)">
       <use xlink:href="#BitstreamVeraSans-Roman-31"/>
       <use x="63.623046875" xlink:href="#BitstreamVeraSans-Roman-34"/>
      </g>
     </g>
    </g>
    <g id="ytick_9">
     <g id="line2d_33">
      <g>
       <use style="stroke:#000000;stroke-width:0.5;" x="72.0" xlink:href="#m347248b23c" y="43.2"/>
      </g>
     </g>
     <g id="line2d_34">
      <g>
       <use style="stroke:#000000;stroke-width:0.5;" x="518.4" xlink:href="#maec99d8ef2" y="43.2"/>
      </g>
     </g>
     <g id="text_17">
      <!-- 16 -->
      <g transform="translate(52.73 46.51125)scale(0.12 -0.12)">
       <use xlink:href="#BitstreamVeraSans-Roman-31"/>
       <use x="63.623046875" xlink:href="#BitstreamVeraSans-Roman-36"/>
      </g>
     </g>
    </g>
    <g id="text_18">
     <!-- Ordered Values -->
     <defs>
      <path id="BitstreamVeraSans-Roman-20"/>
      <path d="M 39.40625 66.21875 
Q 28.65625 66.21875 22.328125 58.203125 
Q 16.015625 50.203125 16.015625 36.375 
Q 16.015625 22.609375 22.328125 14.59375 
Q 28.65625 6.59375 39.40625 6.59375 
Q 50.140625 6.59375 56.421875 14.59375 
Q 62.703125 22.609375 62.703125 36.375 
Q 62.703125 50.203125 56.421875 58.203125 
Q 50.140625 66.21875 39.40625 66.21875 
M 39.40625 74.21875 
Q 54.734375 74.21875 63.90625 63.9375 
Q 73.09375 53.65625 73.09375 36.375 
Q 73.09375 19.140625 63.90625 8.859375 
Q 54.734375 -1.421875 39.40625 -1.421875 
Q 24.03125 -1.421875 14.8125 8.828125 
Q 5.609375 19.09375 5.609375 36.375 
Q 5.609375 53.65625 14.8125 63.9375 
Q 24.03125 74.21875 39.40625 74.21875 
" id="BitstreamVeraSans-Roman-4f"/>
      <path d="M 41.109375 46.296875 
Q 39.59375 47.171875 37.8125 47.578125 
Q 36.03125 48 33.890625 48 
Q 26.265625 48 22.1875 43.046875 
Q 18.109375 38.09375 18.109375 28.8125 
L 18.109375 0 
L 9.078125 0 
L 9.078125 54.6875 
L 18.109375 54.6875 
L 18.109375 46.1875 
Q 20.953125 51.171875 25.484375 53.578125 
Q 30.03125 56 36.53125 56 
Q 37.453125 56 38.578125 55.875 
Q 39.703125 55.765625 41.0625 55.515625 
z
" id="BitstreamVeraSans-Roman-72"/>
      <path d="M 28.609375 0 
L 0.78125 72.90625 
L 11.078125 72.90625 
L 34.1875 11.53125 
L 57.328125 72.90625 
L 67.578125 72.90625 
L 39.796875 0 
z
" id="BitstreamVeraSans-Roman-56"/>
      <path d="M 45.40625 46.390625 
L 45.40625 75.984375 
L 54.390625 75.984375 
L 54.390625 0 
L 45.40625 0 
L 45.40625 8.203125 
Q 42.578125 3.328125 38.25 0.953125 
Q 33.9375 -1.421875 27.875 -1.421875 
Q 17.96875 -1.421875 11.734375 6.484375 
Q 5.515625 14.40625 5.515625 27.296875 
Q 5.515625 40.1875 11.734375 48.09375 
Q 17.96875 56 27.875 56 
Q 33.9375 56 38.25 53.625 
Q 42.578125 51.265625 45.40625 46.390625 
M 14.796875 27.296875 
Q 14.796875 17.390625 18.875 11.75 
Q 22.953125 6.109375 30.078125 6.109375 
Q 37.203125 6.109375 41.296875 11.75 
Q 45.40625 17.390625 45.40625 27.296875 
Q 45.40625 37.203125 41.296875 42.84375 
Q 37.203125 48.484375 30.078125 48.484375 
Q 22.953125 48.484375 18.875 42.84375 
Q 14.796875 37.203125 14.796875 27.296875 
" id="BitstreamVeraSans-Roman-64"/>
     </defs>
     <g transform="translate(45.234375 262.62375)rotate(-90.0)scale(0.12 -0.12)">
      <use xlink:href="#BitstreamVeraSans-Roman-4f"/>
      <use x="78.7109375" xlink:href="#BitstreamVeraSans-Roman-72"/>
      <use x="119.80859375" xlink:href="#BitstreamVeraSans-Roman-64"/>
      <use x="183.28515625" xlink:href="#BitstreamVeraSans-Roman-65"/>
      <use x="244.80859375" xlink:href="#BitstreamVeraSans-Roman-72"/>
      <use x="285.890625" xlink:href="#BitstreamVeraSans-Roman-65"/>
      <use x="347.4140625" xlink:href="#BitstreamVeraSans-Roman-64"/>
      <use x="410.890625" xlink:href="#BitstreamVeraSans-Roman-20"/>
      <use x="442.677734375" xlink:href="#BitstreamVeraSans-Roman-56"/>
      <use x="510.9765625" xlink:href="#BitstreamVeraSans-Roman-61"/>
      <use x="572.255859375" xlink:href="#BitstreamVeraSans-Roman-6c"/>
      <use x="600.0390625" xlink:href="#BitstreamVeraSans-Roman-75"/>
      <use x="663.41796875" xlink:href="#BitstreamVeraSans-Roman-65"/>
      <use x="724.94140625" xlink:href="#BitstreamVeraSans-Roman-73"/>
     </g>
    </g>
   </g>
   <g id="text_19">
    <!-- $R^2=0.9323$ -->
    <defs>
     <path d="M 9.515625 7.71875 
Q 11.859375 4.296875 15.8125 2.640625 
Q 19.78125 0.984375 24.3125 0.984375 
Q 30.125 0.984375 32.5625 5.9375 
Q 35.015625 10.890625 35.015625 17.1875 
Q 35.015625 20.015625 34.5 22.84375 
Q 33.984375 25.6875 32.765625 28.125 
Q 31.546875 30.5625 29.421875 32.03125 
Q 27.296875 33.5 24.21875 33.5 
L 17.578125 33.5 
Q 16.703125 33.5 16.703125 34.421875 
L 16.703125 35.296875 
Q 16.703125 36.078125 17.578125 36.078125 
L 23.09375 36.53125 
Q 26.609375 36.53125 28.921875 39.15625 
Q 31.25 41.796875 32.328125 45.578125 
Q 33.40625 49.359375 33.40625 52.78125 
Q 33.40625 57.5625 31.15625 60.640625 
Q 28.90625 63.71875 24.3125 63.71875 
Q 20.515625 63.71875 17.046875 62.28125 
Q 13.578125 60.84375 11.53125 57.90625 
Q 11.71875 57.953125 11.859375 57.984375 
Q 12.015625 58.015625 12.203125 58.015625 
Q 14.453125 58.015625 15.96875 56.453125 
Q 17.484375 54.890625 17.484375 52.6875 
Q 17.484375 50.53125 15.96875 48.96875 
Q 14.453125 47.40625 12.203125 47.40625 
Q 10.015625 47.40625 8.453125 48.96875 
Q 6.890625 50.53125 6.890625 52.6875 
Q 6.890625 56.984375 9.46875 60.15625 
Q 12.0625 63.328125 16.140625 64.96875 
Q 20.21875 66.609375 24.3125 66.609375 
Q 27.34375 66.609375 30.703125 65.703125 
Q 34.078125 64.796875 36.8125 63.109375 
Q 39.546875 61.421875 41.28125 58.78125 
Q 43.015625 56.15625 43.015625 52.78125 
Q 43.015625 48.578125 41.140625 45.015625 
Q 39.265625 41.453125 35.984375 38.859375 
Q 32.71875 36.28125 28.8125 35.015625 
Q 33.15625 34.1875 37.0625 31.734375 
Q 40.96875 29.296875 43.328125 25.484375 
Q 45.703125 21.6875 45.703125 17.28125 
Q 45.703125 11.765625 42.671875 7.296875 
Q 39.65625 2.828125 34.71875 0.3125 
Q 29.78125 -2.203125 24.3125 -2.203125 
Q 19.625 -2.203125 14.90625 -0.40625 
Q 10.203125 1.375 7.203125 4.9375 
Q 4.203125 8.5 4.203125 13.484375 
Q 4.203125 15.96875 5.859375 17.625 
Q 7.515625 19.28125 10.015625 19.28125 
Q 11.625 19.28125 12.96875 18.53125 
Q 14.3125 17.78125 15.0625 16.40625 
Q 15.828125 15.046875 15.828125 13.484375 
Q 15.828125 11.03125 14.109375 9.375 
Q 12.40625 7.71875 10.015625 7.71875 
z
" id="Cmr10-33"/>
     <path d="M 4.984375 0 
L 4.984375 2.6875 
Q 4.984375 2.9375 5.171875 3.21875 
L 20.703125 20.40625 
Q 24.21875 24.21875 26.40625 26.796875 
Q 28.609375 29.390625 30.75 32.765625 
Q 32.90625 36.140625 34.15625 39.625 
Q 35.40625 43.109375 35.40625 47.015625 
Q 35.40625 51.125 33.890625 54.859375 
Q 32.375 58.59375 29.375 60.84375 
Q 26.375 63.09375 22.125 63.09375 
Q 17.78125 63.09375 14.3125 60.46875 
Q 10.84375 57.859375 9.421875 53.71875 
Q 9.8125 53.8125 10.5 53.8125 
Q 12.75 53.8125 14.328125 52.296875 
Q 15.921875 50.78125 15.921875 48.390625 
Q 15.921875 46.09375 14.328125 44.5 
Q 12.75 42.921875 10.5 42.921875 
Q 8.15625 42.921875 6.5625 44.546875 
Q 4.984375 46.1875 4.984375 48.390625 
Q 4.984375 52.15625 6.390625 55.4375 
Q 7.8125 58.734375 10.46875 61.296875 
Q 13.140625 63.875 16.484375 65.234375 
Q 19.828125 66.609375 23.578125 66.609375 
Q 29.296875 66.609375 34.21875 64.1875 
Q 39.15625 61.765625 42.03125 57.34375 
Q 44.921875 52.9375 44.921875 47.015625 
Q 44.921875 42.671875 43.015625 38.765625 
Q 41.109375 34.859375 38.125 31.65625 
Q 35.15625 28.46875 30.515625 24.40625 
Q 25.875 20.359375 24.421875 19 
L 13.09375 8.109375 
L 22.703125 8.109375 
Q 29.78125 8.109375 34.546875 8.21875 
Q 39.3125 8.34375 39.59375 8.59375 
Q 40.765625 9.859375 42 17.828125 
L 44.921875 17.828125 
L 42.09375 0 
z
" id="Cmr10-32"/>
     <path d="M 25 -2.203125 
Q 12.75 -2.203125 8.328125 7.875 
Q 3.90625 17.96875 3.90625 31.890625 
Q 3.90625 40.578125 5.484375 48.234375 
Q 7.078125 55.90625 11.78125 61.25 
Q 16.5 66.609375 25 66.609375 
Q 31.59375 66.609375 35.78125 63.375 
Q 39.984375 60.15625 42.1875 55.046875 
Q 44.390625 49.953125 45.1875 44.109375 
Q 46 38.28125 46 31.890625 
Q 46 23.296875 44.40625 15.796875 
Q 42.828125 8.296875 38.1875 3.046875 
Q 33.546875 -2.203125 25 -2.203125 
M 25 0.390625 
Q 30.5625 0.390625 33.296875 6.09375 
Q 36.03125 11.8125 36.671875 18.75 
Q 37.3125 25.6875 37.3125 33.5 
Q 37.3125 41.015625 36.671875 47.359375 
Q 36.03125 53.71875 33.3125 58.859375 
Q 30.609375 64.015625 25 64.015625 
Q 19.34375 64.015625 16.609375 58.828125 
Q 13.875 53.65625 13.234375 47.328125 
Q 12.59375 41.015625 12.59375 33.5 
Q 12.59375 27.9375 12.859375 23 
Q 13.140625 18.0625 14.3125 12.8125 
Q 15.484375 7.5625 18.09375 3.96875 
Q 20.703125 0.390625 25 0.390625 
" id="Cmr10-30"/>
     <path d="M 4.890625 0 
Q 3.90625 0 3.90625 1.3125 
Q 3.953125 1.5625 4.09375 2.171875 
Q 4.25 2.78125 4.515625 3.140625 
Q 4.78125 3.515625 5.171875 3.515625 
Q 11.28125 3.515625 13.71875 4.203125 
Q 14.984375 4.640625 15.578125 6.890625 
L 29.296875 61.8125 
Q 29.5 62.796875 29.5 63.1875 
Q 29.5 64.265625 28.328125 64.40625 
Q 26.421875 64.796875 21.09375 64.796875 
Q 20.125 64.796875 20.125 66.109375 
Q 20.171875 66.359375 20.3125 66.96875 
Q 20.453125 67.578125 20.71875 67.9375 
Q 21 68.3125 21.390625 68.3125 
L 51.703125 68.3125 
Q 55.328125 68.3125 59.234375 67.484375 
Q 63.140625 66.65625 66.40625 64.875 
Q 69.671875 63.09375 71.765625 60.125 
Q 73.875 57.171875 73.875 53.21875 
Q 73.875 48.1875 70.546875 44.234375 
Q 67.234375 40.28125 62.15625 37.625 
Q 57.078125 34.96875 52.296875 33.890625 
Q 56.203125 32.46875 58.6875 29.359375 
Q 61.1875 26.265625 61.1875 22.21875 
Q 61.1875 21.6875 61.15625 21.40625 
Q 61.140625 21.140625 61.078125 20.796875 
L 60.296875 11.921875 
Q 60.203125 9.96875 60.109375 8.59375 
Q 60.015625 7.234375 60.015625 6.390625 
Q 60.015625 3.65625 60.8125 2.015625 
Q 61.625 0.390625 64.015625 0.390625 
Q 67.140625 0.390625 69.5 3.296875 
Q 71.875 6.203125 72.609375 9.625 
Q 73.046875 10.5 73.578125 10.5 
L 74.515625 10.5 
Q 75.484375 10.5 75.484375 9.1875 
Q 74.75 6.296875 73.15625 3.703125 
Q 71.578125 1.125 69.15625 -0.53125 
Q 66.75 -2.203125 63.921875 -2.203125 
Q 58.0625 -2.203125 53.9375 0.40625 
Q 49.8125 3.03125 49.8125 8.59375 
Q 49.8125 10.6875 50.203125 12.3125 
L 52.390625 21.1875 
Q 52.78125 22.40625 52.78125 24.03125 
Q 52.78125 28.171875 49.96875 30.53125 
Q 47.171875 32.90625 42.921875 32.90625 
L 30.609375 32.90625 
L 24.03125 6.5 
Q 23.78125 5.671875 23.78125 5.078125 
Q 23.78125 4.046875 25 3.90625 
Q 26.90625 3.515625 32.171875 3.515625 
Q 33.203125 3.515625 33.203125 2.203125 
Q 32.859375 0.78125 32.65625 0.390625 
Q 32.46875 0 31.5 0 
z
M 31.203125 35.5 
L 42.28125 35.5 
Q 53.171875 35.5 58.6875 41.015625 
Q 61.234375 43.5625 62.71875 47.484375 
Q 64.203125 51.421875 64.203125 55.328125 
Q 64.203125 59.03125 62.03125 61.125 
Q 59.859375 63.234375 56.65625 64.015625 
Q 53.46875 64.796875 49.609375 64.796875 
L 42.921875 64.796875 
Q 40.1875 64.796875 39.296875 64.328125 
Q 38.421875 63.875 37.703125 61.375 
z
" id="Cmmi10-52"/>
     <path d="M 7.515625 13.28125 
Q 6.6875 13.28125 6.140625 13.90625 
Q 5.609375 14.546875 5.609375 15.28125 
Q 5.609375 16.109375 6.140625 16.6875 
Q 6.6875 17.28125 7.515625 17.28125 
L 70.3125 17.28125 
Q 71.046875 17.28125 71.578125 16.6875 
Q 72.125 16.109375 72.125 15.28125 
Q 72.125 14.546875 71.578125 13.90625 
Q 71.046875 13.28125 70.3125 13.28125 
z
M 7.515625 32.71875 
Q 6.6875 32.71875 6.140625 33.296875 
Q 5.609375 33.890625 5.609375 34.71875 
Q 5.609375 35.453125 6.140625 36.078125 
Q 6.6875 36.71875 7.515625 36.71875 
L 70.3125 36.71875 
Q 71.046875 36.71875 71.578125 36.078125 
Q 72.125 35.453125 72.125 34.71875 
Q 72.125 33.890625 71.578125 33.296875 
Q 71.046875 32.71875 70.3125 32.71875 
z
" id="Cmr10-3d"/>
     <path d="M 11.28125 4.203125 
Q 14.015625 0.984375 20.796875 0.984375 
Q 24.609375 0.984375 27.90625 3.5625 
Q 31.203125 6.15625 33.015625 9.90625 
Q 35.109375 14.15625 35.6875 18.96875 
Q 36.28125 23.78125 36.28125 30.90625 
Q 34.578125 26.859375 31.375 24.265625 
Q 28.171875 21.6875 24.03125 21.6875 
Q 18.21875 21.6875 13.640625 24.828125 
Q 9.078125 27.984375 6.640625 33.125 
Q 4.203125 38.28125 4.203125 44.09375 
Q 4.203125 50.09375 6.9375 55.296875 
Q 9.671875 60.5 14.5 63.546875 
Q 19.34375 66.609375 25.484375 66.609375 
Q 31.546875 66.609375 35.625 63.3125 
Q 39.703125 60.015625 41.84375 54.8125 
Q 44 49.609375 44.84375 43.796875 
Q 45.703125 37.984375 45.703125 32.328125 
Q 45.703125 24.609375 42.875 16.578125 
Q 40.046875 8.546875 34.40625 3.171875 
Q 28.765625 -2.203125 20.796875 -2.203125 
Q 14.890625 -2.203125 10.78125 0.578125 
Q 6.6875 3.375 6.6875 8.984375 
Q 6.6875 11.03125 8.078125 12.421875 
Q 9.46875 13.8125 11.53125 13.8125 
Q 13.53125 13.8125 14.921875 12.421875 
Q 16.3125 11.03125 16.3125 8.984375 
Q 16.3125 7.03125 14.890625 5.609375 
Q 13.484375 4.203125 11.53125 4.203125 
z
M 24.421875 24.3125 
Q 28.515625 24.3125 31.125 27.0625 
Q 33.734375 29.828125 34.90625 33.921875 
Q 36.078125 38.03125 36.078125 42.09375 
L 36.078125 44 
L 36.078125 44.390625 
Q 36.078125 51.90625 33.875 57.8125 
Q 31.6875 63.71875 25.484375 63.71875 
Q 21.53125 63.71875 19.0625 61.984375 
Q 16.609375 60.25 15.4375 57.375 
Q 14.265625 54.5 13.9375 51.21875 
Q 13.625 47.953125 13.625 44.09375 
Q 13.625 38.421875 14.15625 34.421875 
Q 14.703125 30.421875 17.09375 27.359375 
Q 19.484375 24.3125 24.421875 24.3125 
" id="Cmr10-39"/>
     <path d="M 8.40625 5.515625 
Q 8.40625 7.765625 10.0625 9.375 
Q 11.71875 10.984375 13.921875 10.984375 
Q 15.28125 10.984375 16.59375 10.25 
Q 17.921875 9.515625 18.65625 8.203125 
Q 19.390625 6.890625 19.390625 5.515625 
Q 19.390625 3.328125 17.765625 1.65625 
Q 16.15625 0 13.921875 0 
Q 11.71875 0 10.0625 1.65625 
Q 8.40625 3.328125 8.40625 5.515625 
" id="Cmmi10-3a"/>
    </defs>
    <g transform="translate(375.473321439 353.8296)scale(0.12 -0.12)">
     <use transform="translate(0.0 0.109375)" xlink:href="#Cmmi10-52"/>
     <use transform="translate(87.2484375 38.3734375)scale(0.7)" xlink:href="#Cmr10-32"/>
     <use transform="translate(146.184375 0.109375)" xlink:href="#Cmr10-3d"/>
     <use transform="translate(241.428515625 0.109375)" xlink:href="#Cmr10-30"/>
     <use transform="translate(291.428515625 0.109375)" xlink:href="#Cmmi10-3a"/>
     <use transform="translate(336.67265625 0.109375)" xlink:href="#Cmr10-39"/>
     <use transform="translate(386.67265625 0.109375)" xlink:href="#Cmr10-33"/>
     <use transform="translate(436.67265625 0.109375)" xlink:href="#Cmr10-32"/>
     <use transform="translate(486.67265625 0.109375)" xlink:href="#Cmr10-33"/>
    </g>
   </g>
   <g id="text_20">
    <!-- mnO2_qq plot -->
    <defs>
     <path d="M 52 44.1875 
Q 55.375 50.25 60.0625 53.125 
Q 64.75 56 71.09375 56 
Q 79.640625 56 84.28125 50.015625 
Q 88.921875 44.046875 88.921875 33.015625 
L 88.921875 0 
L 79.890625 0 
L 79.890625 32.71875 
Q 79.890625 40.578125 77.09375 44.375 
Q 74.3125 48.1875 68.609375 48.1875 
Q 61.625 48.1875 57.5625 43.546875 
Q 53.515625 38.921875 53.515625 30.90625 
L 53.515625 0 
L 44.484375 0 
L 44.484375 32.71875 
Q 44.484375 40.625 41.703125 44.40625 
Q 38.921875 48.1875 33.109375 48.1875 
Q 26.21875 48.1875 22.15625 43.53125 
Q 18.109375 38.875 18.109375 30.90625 
L 18.109375 0 
L 9.078125 0 
L 9.078125 54.6875 
L 18.109375 54.6875 
L 18.109375 46.1875 
Q 21.1875 51.21875 25.484375 53.609375 
Q 29.78125 56 35.6875 56 
Q 41.65625 56 45.828125 52.96875 
Q 50 49.953125 52 44.1875 
" id="BitstreamVeraSans-Roman-6d"/>
     <path d="M 30.609375 48.390625 
Q 23.390625 48.390625 19.1875 42.75 
Q 14.984375 37.109375 14.984375 27.296875 
Q 14.984375 17.484375 19.15625 11.84375 
Q 23.34375 6.203125 30.609375 6.203125 
Q 37.796875 6.203125 41.984375 11.859375 
Q 46.1875 17.53125 46.1875 27.296875 
Q 46.1875 37.015625 41.984375 42.703125 
Q 37.796875 48.390625 30.609375 48.390625 
M 30.609375 56 
Q 42.328125 56 49.015625 48.375 
Q 55.71875 40.765625 55.71875 27.296875 
Q 55.71875 13.875 49.015625 6.21875 
Q 42.328125 -1.421875 30.609375 -1.421875 
Q 18.84375 -1.421875 12.171875 6.21875 
Q 5.515625 13.875 5.515625 27.296875 
Q 5.515625 40.765625 12.171875 48.375 
Q 18.84375 56 30.609375 56 
" id="BitstreamVeraSans-Roman-6f"/>
     <path d="M 18.109375 8.203125 
L 18.109375 -20.796875 
L 9.078125 -20.796875 
L 9.078125 54.6875 
L 18.109375 54.6875 
L 18.109375 46.390625 
Q 20.953125 51.265625 25.265625 53.625 
Q 29.59375 56 35.59375 56 
Q 45.5625 56 51.78125 48.09375 
Q 58.015625 40.1875 58.015625 27.296875 
Q 58.015625 14.40625 51.78125 6.484375 
Q 45.5625 -1.421875 35.59375 -1.421875 
Q 29.59375 -1.421875 25.265625 0.953125 
Q 20.953125 3.328125 18.109375 8.203125 
M 48.6875 27.296875 
Q 48.6875 37.203125 44.609375 42.84375 
Q 40.53125 48.484375 33.40625 48.484375 
Q 26.265625 48.484375 22.1875 42.84375 
Q 18.109375 37.203125 18.109375 27.296875 
Q 18.109375 17.390625 22.1875 11.75 
Q 26.265625 6.109375 33.40625 6.109375 
Q 40.53125 6.109375 44.609375 11.75 
Q 48.6875 17.390625 48.6875 27.296875 
" id="BitstreamVeraSans-Roman-70"/>
     <path d="M 50.984375 -16.609375 
L 50.984375 -23.578125 
L -0.984375 -23.578125 
L -0.984375 -16.609375 
z
" id="BitstreamVeraSans-Roman-5f"/>
     <path d="M 14.796875 27.296875 
Q 14.796875 17.390625 18.875 11.75 
Q 22.953125 6.109375 30.078125 6.109375 
Q 37.203125 6.109375 41.296875 11.75 
Q 45.40625 17.390625 45.40625 27.296875 
Q 45.40625 37.203125 41.296875 42.84375 
Q 37.203125 48.484375 30.078125 48.484375 
Q 22.953125 48.484375 18.875 42.84375 
Q 14.796875 37.203125 14.796875 27.296875 
M 45.40625 8.203125 
Q 42.578125 3.328125 38.25 0.953125 
Q 33.9375 -1.421875 27.875 -1.421875 
Q 17.96875 -1.421875 11.734375 6.484375 
Q 5.515625 14.40625 5.515625 27.296875 
Q 5.515625 40.1875 11.734375 48.09375 
Q 17.96875 56 27.875 56 
Q 33.9375 56 38.25 53.625 
Q 42.578125 51.265625 45.40625 46.390625 
L 45.40625 54.6875 
L 54.390625 54.6875 
L 54.390625 -20.796875 
L 45.40625 -20.796875 
z
" id="BitstreamVeraSans-Roman-71"/>
    </defs>
    <g transform="translate(244.54575 38.2)scale(0.144 -0.144)">
     <use xlink:href="#BitstreamVeraSans-Roman-6d"/>
     <use x="97.412109375" xlink:href="#BitstreamVeraSans-Roman-6e"/>
     <use x="160.791015625" xlink:href="#BitstreamVeraSans-Roman-4f"/>
     <use x="239.501953125" xlink:href="#BitstreamVeraSans-Roman-32"/>
     <use x="303.125" xlink:href="#BitstreamVeraSans-Roman-5f"/>
     <use x="353.125" xlink:href="#BitstreamVeraSans-Roman-71"/>
     <use x="416.6015625" xlink:href="#BitstreamVeraSans-Roman-71"/>
     <use x="480.078125" xlink:href="#BitstreamVeraSans-Roman-20"/>
     <use x="511.865234375" xlink:href="#BitstreamVeraSans-Roman-70"/>
     <use x="575.341796875" xlink:href="#BitstreamVeraSans-Roman-6c"/>
     <use x="603.125" xlink:href="#BitstreamVeraSans-Roman-6f"/>
     <use x="664.306640625" xlink:href="#BitstreamVeraSans-Roman-74"/>
    </g>
   </g>
  </g>
 </g>
 <defs>
  <clipPath id="p0664350155">
   <rect height="345.6" width="446.4" x="72.0" y="43.2"/>
  </clipPath>
 </defs>
</svg>
